<?xml version="1.0" encoding="utf-8"?>
<!-- Generator: Adobe Illustrator 16.0.0, SVG Export Plug-In . SVG Version: 6.00 Build 0)  -->
<!DOCTYPE svg PUBLIC "-//W3C//DTD SVG 1.1//EN" "http://www.w3.org/Graphics/SVG/1.1/DTD/svg11.dtd">
<svg version="1.1" id="Layer_1" xmlns="http://www.w3.org/2000/svg" xmlns:xlink="http://www.w3.org/1999/xlink" x="0px" y="0px"
	 width="1012.5px" height="59px" viewBox="0 371.5 1012.5 59" enable-background="new 0 371.5 1012.5 59" xml:space="preserve">
<g>
	<path fill="#333333" d="M32.65,386.877H15.961v10.004h16.204v5.904H15.961v13.911H32.65v5.904H9.679v-41.628H32.65V386.877z"/>
	<path fill="#333333" d="M43.578,422.601v-44.459l30.358,31.761v-28.93h6.282v44.162l-30.357-31.68v29.146H43.578z"/>
	<path fill="#333333" d="M92.789,422.601v-41.628h8.735c4.188,0,7.496,0.414,9.921,1.24c2.606,0.809,4.97,2.184,7.091,4.125
		c4.296,3.919,6.444,9.068,6.444,15.449c0,6.398-2.238,11.575-6.713,15.529c-2.247,1.977-4.602,3.353-7.064,4.124
		c-2.301,0.774-5.563,1.16-9.786,1.16H92.789z M99.071,416.696h2.831c2.822,0,5.167-0.297,7.037-0.89
		c1.87-0.63,3.559-1.627,5.069-2.993c3.091-2.821,4.637-6.497,4.637-11.026c0-4.565-1.528-8.269-4.583-11.108
		c-2.75-2.535-6.804-3.802-12.16-3.802h-2.831V416.696z"/>
	<path fill="#333333" d="M141.792,380.973v41.628h-6.282v-41.628H141.792z"/>
	<path fill="#333333" d="M154.383,422.601v-44.459l30.358,31.761v-28.93h6.282v44.162l-30.358-31.68v29.146H154.383z"/>
	<path fill="#333333" d="M224.946,400.924h17.202v1.375c0,3.127-0.369,5.896-1.106,8.305c-0.719,2.229-1.933,4.313-3.639,6.256
		c-3.865,4.35-8.781,6.523-14.749,6.523c-5.823,0-10.811-2.103-14.963-6.309c-4.152-4.224-6.228-9.293-6.228-15.206
		c0-6.04,2.112-11.162,6.336-15.369c4.224-4.224,9.364-6.335,15.422-6.335c3.253,0,6.29,0.662,9.112,1.985
		c2.696,1.325,5.348,3.476,7.954,6.454l-4.475,4.286c-3.416-4.547-7.577-6.821-12.483-6.821c-4.404,0-8.098,1.519-11.081,4.557
		c-2.984,2.982-4.475,6.723-4.475,11.215c0,4.639,1.662,8.458,4.987,11.459c3.11,2.786,6.48,4.18,10.111,4.18
		c3.091,0,5.868-1.041,8.331-3.12c2.462-2.097,3.837-4.607,4.125-7.53h-10.38V400.924z"/>
	<path fill="#333333" d="M284.095,386.877v35.724h-6.282v-35.724h-9.572v-5.904h25.398v5.904H284.095z"/>
	<path fill="#333333" d="M308.003,397.257h17.956v-16.284h6.282v41.628h-6.282v-19.439h-17.956v19.439h-6.282v-41.628h6.282V397.257
		z"/>
	<path fill="#333333" d="M367.811,386.877h-16.688v10.004h16.203v5.904h-16.203v13.911h16.688v5.904H344.84v-41.628h22.971V386.877z
		"/>
	<path fill="#333333" d="M404.904,405.696v16.904h-6.282v-41.628h7.117c3.487,0,6.121,0.243,7.899,0.728
		c1.797,0.485,3.38,1.402,4.745,2.75c2.391,2.337,3.586,5.285,3.586,8.843c0,3.812-1.275,6.832-3.827,9.06
		c-2.554,2.229-5.995,3.344-10.327,3.344H404.904z M404.904,399.873h2.346c5.77,0,8.654-2.221,8.654-6.66
		c0-4.296-2.976-6.444-8.925-6.444h-2.075V399.873z"/>
	<path fill="#333333" d="M436.749,380.973v35.724h12.24v5.904h-18.522v-41.628H436.749z"/>
	<path fill="#333333" d="M484.162,412.49h-17.821l-4.638,10.11h-6.768l20.599-44.244l19.87,44.244h-6.875L484.162,412.49z
		 M481.601,406.586l-6.175-14.155l-6.47,14.155H481.601z"/>
	<path fill="#333333" d="M507.347,404.617l-13.589-23.645h7.227l9.517,16.635l9.544-16.635h7.226l-13.642,23.645v17.983h-6.282
		V404.617z"/>
	<path fill="#333333" d="M579.086,412.49h-17.821l-4.637,10.11h-6.768l20.599-44.244l19.869,44.244h-6.874L579.086,412.49z
		 M576.523,406.586l-6.174-14.155l-6.47,14.155H576.523z"/>
	<path fill="#333333" d="M598.199,422.601v-44.459l30.358,31.761v-28.93h6.284v44.162l-30.358-31.68v29.146H598.199z"/>
	<path fill="#333333" d="M647.409,422.601v-41.628h8.736c4.189,0,7.494,0.414,9.923,1.24c2.605,0.809,4.969,2.184,7.09,4.125
		c4.295,3.919,6.442,9.068,6.442,15.449c0,6.398-2.236,11.575-6.711,15.529c-2.247,1.977-4.604,3.353-7.066,4.124
		c-2.3,0.774-5.562,1.16-9.787,1.16H647.409z M653.693,416.696h2.83c2.82,0,5.167-0.297,7.036-0.89
		c1.869-0.63,3.56-1.627,5.067-2.993c3.093-2.821,4.641-6.497,4.641-11.026c0-4.565-1.528-8.269-4.584-11.108
		c-2.751-2.535-6.804-3.802-12.16-3.802h-2.83V416.696z"/>
	<path fill="#333333" d="M716.347,405.696v16.904h-6.284v-41.628h7.119c3.486,0,6.118,0.243,7.897,0.728
		c1.8,0.485,3.381,1.402,4.746,2.75c2.39,2.337,3.586,5.285,3.586,8.843c0,3.812-1.275,6.832-3.827,9.06
		c-2.553,2.229-5.996,3.344-10.328,3.344H716.347z M716.347,399.873h2.343c5.771,0,8.657-2.221,8.657-6.66
		c0-4.296-2.977-6.444-8.926-6.444h-2.074V399.873z"/>
	<path fill="#333333" d="M763.227,412.49h-17.82l-4.637,10.11h-6.768l20.598-44.244l19.869,44.244h-6.874L763.227,412.49z
		 M760.665,406.586l-6.175-14.155l-6.47,14.155H760.665z"/>
	<path fill="#333333" d="M786.41,404.617l-13.589-23.645h7.226l9.519,16.635l9.545-16.635h7.226l-13.643,23.645v17.983h-6.283
		V404.617z"/>
	<path fill="#333333" d="M809.083,422.601l8.763-44.756l14.288,32.354l14.802-32.354l7.875,44.756h-6.447l-4.017-25.127
		l-12.319,27.041l-11.971-27.069l-4.478,25.155H809.083z"/>
	<path fill="#333333" d="M888.304,386.877h-16.69v10.004h16.203v5.904h-16.203v13.911h16.69v5.904h-22.971v-41.628h22.971V386.877z"
		/>
	<path fill="#333333" d="M899.231,422.601v-44.459l30.358,31.761v-28.93h6.28v44.162l-30.358-31.68v29.146H899.231z"/>
	<path fill="#333333" d="M959.783,386.877v35.724h-6.281v-35.724h-9.571v-5.904h25.397v5.904H959.783z"/>
	<path fill="#333333" d="M1000.804,387.146l-5.098,3.02c-0.951-1.654-1.859-2.732-2.721-3.235c-0.898-0.575-2.058-0.863-3.479-0.863
		c-1.744,0-3.189,0.495-4.339,1.484c-1.15,0.971-1.727,2.194-1.727,3.669c0,2.034,1.511,3.669,4.53,4.91l4.152,1.701
		c3.378,1.367,5.851,3.035,7.414,5.004c1.562,1.971,2.344,4.385,2.344,7.245c0,3.831-1.276,6.997-3.828,9.497
		c-2.568,2.519-5.76,3.778-9.571,3.778c-3.612,0-6.596-1.075-8.948-3.223c-2.32-2.148-3.769-5.162-4.342-9.045l6.363-1.402
		c0.285,2.444,0.789,4.135,1.508,5.067c1.296,1.799,3.182,2.696,5.664,2.696c1.959,0,3.583-0.654,4.879-1.965
		c1.292-1.312,1.941-2.974,1.941-4.985c0-0.809-0.112-1.549-0.338-2.222c-0.225-0.675-0.576-1.294-1.051-1.859
		c-0.477-0.566-1.094-1.096-1.849-1.589c-0.753-0.494-1.654-0.967-2.694-1.416l-4.018-1.67c-5.697-2.406-8.547-5.928-8.547-10.561
		c0-3.125,1.196-5.739,3.586-7.84c2.389-2.12,5.365-3.179,8.925-3.179C994.361,380.164,998.105,382.492,1000.804,387.146z"/>
</g>
</svg>
