<?xml version="1.0" encoding="utf-8"?>
<!-- Generator: Adobe Illustrator 16.0.0, SVG Export Plug-In . SVG Version: 6.00 Build 0)  -->
<!DOCTYPE svg PUBLIC "-//W3C//DTD SVG 1.1//EN" "http://www.w3.org/Graphics/SVG/1.1/DTD/svg11.dtd">
<svg version="1.1" id="Layer_1" xmlns="http://www.w3.org/2000/svg" xmlns:xlink="http://www.w3.org/1999/xlink" x="0px" y="0px"
	 width="612px" height="792px" viewBox="0 0 612 792" enable-background="new 0 0 612 792" xml:space="preserve">
<path fill="#333333" d="M28.35,396.008c0-153.512,124.455-277.943,277.962-277.943s277.969,124.431,277.969,277.943
	c0,153.511-124.461,277.966-277.969,277.966S28.35,549.519,28.35,396.008z"/>
<g>
	<path fill="#FFFFFF" d="M424.814,372.246l-231.734,6.586c2.427,12.126,11.168,47.912,11.168,60.761
		c0,28.869-6.48,56.212-17.99,80.715c39.444,14.342,82.007,22.202,126.415,22.202c44.407,0,86.964-7.86,126.413-22.202
		c-11.523-24.503-17.99-51.846-17.99-80.715C421.096,426.744,422.387,384.373,424.814,372.246z"/>
	<linearGradient id="SVGID_1_" gradientUnits="userSpaceOnUse" x1="311.0059" y1="233.7524" x2="312.9737" y2="351.8268">
		<stop  offset="0" style="stop-color:#E9907D"/>
		<stop  offset="1" style="stop-color:#F8AC98"/>
	</linearGradient>
	<path fill="url(#SVGID_1_)" d="M205.677,336.162c-0.648,5.947-1.015,12.22-1.015,18.88c0,79.495,48.514,189.588,108.367,189.588
		c59.847,0,108.364-110.093,108.364-189.588c0-6.66-0.38-12.933-1.045-18.88l-110.021-56.98L205.677,336.162z"/>
	<path fill="#FFFFFF" d="M316.377,237.144c-68.754,0-124.495,55.739-124.495,124.492c0,13.347,2.134,26.161,6.026,38.214
		l3.328-0.628c0,0,15.859-53.608,42.942-74.674c34.376,116.823,169.375,33.559,159.12,141.083
		c14.411-20.32,37.562-77.186,37.562-103.995C440.861,292.882,385.13,237.144,316.377,237.144z"/>
	<g>
		<path d="M256.577,415.599c13.428-3.311,26.571-2.84,37.525,0.619c-9.709-11.23-25.174-16.769-40.58-12.968
			c-15.385,3.802-17.802,13.963-36.122,4.805C225.419,417.791,243.16,418.914,256.577,415.599z"/>
		<path d="M369.463,415.599c-13.415-3.311-26.56-2.84-37.513,0.619c9.697-11.23,25.188-16.769,40.57-12.968
			c15.394,3.802,17.797,13.963,36.132,4.805C400.647,417.791,382.896,418.914,369.463,415.599z"/>
		<g>
			<path fill="#F05B26" d="M331.004,478.578c0-0.062,0.009-0.121,0.009-0.186c-0.009,0-0.021,0.018-0.021,0.029
				c-0.121-5.223-4.375-9.428-9.614-9.428c-3.862,0-7.179,2.299-8.705,5.592c-1.538-3.293-4.846-5.592-8.716-5.592
				c-5.235,0-9.485,4.205-9.604,9.416c-0.012,0-0.012-0.018-0.026-0.018c0,0.064,0.015,0.123,0.015,0.186
				c0,0.012-0.015,0.031-0.015,0.057c0,0.038,0.015,0.073,0.015,0.117c0.131,14.248,8.288,25.746,18.332,25.746
				c10.038,0,18.189-11.498,18.319-25.746c0-0.044,0.021-0.079,0.021-0.117C331.013,478.609,331.004,478.59,331.004,478.578z
				 M312.614,482.777c0.009-0.035,0.032-0.072,0.059-0.102c0.021,0.029,0.035,0.066,0.059,0.102
				C312.693,482.777,312.646,482.777,312.614,482.777z"/>
			<path fill="#FFFFFF" d="M312.871,498.98c-1.657-0.289-6.675-5.767-10.666-19.729h21.312
				C319.529,493.236,314.521,498.691,312.871,498.98L312.871,498.98z"/>
		</g>
	</g>
</g>
</svg>
