<?xml version="1.0" encoding="utf-8"?>
<!-- Generator: Adobe Illustrator 16.0.0, SVG Export Plug-In . SVG Version: 6.00 Build 0)  -->
<!DOCTYPE svg PUBLIC "-//W3C//DTD SVG 1.1//EN" "http://www.w3.org/Graphics/SVG/1.1/DTD/svg11.dtd">
<svg version="1.1" id="Layer_1" xmlns="http://www.w3.org/2000/svg" xmlns:xlink="http://www.w3.org/1999/xlink" x="0px" y="0px"
	 width="1224px" height="563px" viewBox="0 90.5 1224 563" enable-background="new 0 90.5 1224 563" xml:space="preserve">
<path fill="#5AB157" d="M334.388,234.586H320.59l-43.776-60.124H270v60.124h-11.327V108.482h22.91
	c13.512,0,23.634,2.842,30.362,8.526c6.728,5.687,10.092,14.299,10.092,25.842c0,9.82-2.883,17.543-8.645,23.17
	c-5.764,5.63-13.698,8.442-23.803,8.442L334.388,234.586z M270,118.474v46.599h11.413c10.561,0,17.928-1.708,22.101-5.125
	c4.173-3.416,6.26-9.229,6.26-17.442c0-8.671-2.159-14.844-6.472-18.52c-4.315-3.674-11.613-5.512-21.888-5.512H270z"/>
<path fill="#5AB157" d="M417.919,108.482h11.158v82.346c0,12.462,2.811,21.721,8.431,27.78c5.622,6.06,14.223,9.087,25.806,9.087
	c11.413,0,19.929-3.027,25.551-9.087c5.62-6.059,8.431-15.318,8.431-27.78v-82.346h11.328v78.642
	c0,17.055-3.748,29.79-11.242,38.202c-7.495,8.412-18.851,12.618-34.067,12.618c-15.274,0-26.658-4.206-34.152-12.618
	c-7.495-8.413-11.243-21.147-11.243-38.202V108.482z"/>
<path fill="#5AB157" d="M606.804,234.586V108.482h11.327v115.335h42.755v10.769H606.804z"/>
<path fill="#5AB157" d="M746.546,234.586V108.482h61.746v10.767h-50.417v39.451h50.417v10.768h-50.417v54.351h50.417v10.769H746.546
	z"/>
<path fill="#5AB157" d="M894.209,213.396l9.708-5.255c1.817,6.203,4.956,11.012,9.414,14.428c4.456,3.417,9.807,5.125,16.053,5.125
	c7.891,0,14.055-2.354,18.481-7.064c4.428-4.708,6.644-11.226,6.644-19.551c0-6.088-1.491-11.142-4.472-15.162
	c-2.98-4.019-9.383-8.67-19.207-13.954c-12.548-6.718-20.894-12.632-25.036-17.744c-4.146-5.11-6.219-11.254-6.219-18.434
	c0-8.957,2.995-16.249,8.983-21.877c5.99-5.628,13.756-8.442,23.295-8.442c6.244,0,11.681,1.335,16.311,4.006
	c4.628,2.669,8.387,6.674,11.286,12.016l-8.774,5.34c-1.816-3.618-4.387-6.374-7.706-8.27c-3.325-1.896-7.256-2.843-11.796-2.843
	c-6.133,0-11.02,1.823-14.648,5.47c-3.634,3.647-5.452,8.571-5.452,14.772c0,8.843,7.209,17.084,21.634,24.721
	c2.61,1.379,4.597,2.441,5.959,3.187c10.617,5.916,17.715,11.5,21.293,16.754c3.575,5.255,5.367,12.074,5.367,20.458
	c0,11.313-3.27,20.284-9.797,26.917c-6.529,6.632-15.415,9.948-26.656,9.948c-8.175,0-15.174-2.053-20.994-6.159
	C902.061,227.68,897.504,221.55,894.209,213.396z"/>
<path fill="#5AB157" d="M197.084,370.34c0,8.901-1.676,17.356-5.028,25.365c-3.353,8.012-8.181,15.149-14.486,21.406
	c-6.421,6.317-13.666,11.126-21.732,14.429c-8.069,3.301-16.591,4.953-25.566,4.953c-8.977,0-17.487-1.652-25.524-4.953
	c-8.041-3.303-15.241-8.111-21.604-14.429c-6.363-6.373-11.206-13.536-14.531-21.489c-3.324-7.953-4.985-16.38-4.985-25.281
	c0-9.017,1.661-17.53,4.985-25.541c3.325-8.011,8.167-15.203,14.531-21.577c6.249-6.259,13.379-10.997,21.389-14.214
	c8.012-3.214,16.591-4.822,25.739-4.822c9.203,0,17.825,1.623,25.864,4.867c8.039,3.245,15.184,7.967,21.435,14.169
	c6.362,6.374,11.205,13.566,14.529,21.577C195.423,352.81,197.084,361.323,197.084,370.34z M130.271,426.241
	c7.385,0,14.375-1.38,20.967-4.134c6.59-2.757,12.528-6.775,17.813-12.061c5.17-5.34,9.134-11.414,11.889-18.218
	c2.756-6.804,4.135-13.968,4.135-21.489c0-7.582-1.364-14.745-4.093-21.493c-2.727-6.747-6.704-12.82-11.932-18.217
	c-5.17-5.283-11.067-9.304-17.687-12.06c-6.62-2.756-13.651-4.135-21.094-4.135c-7.389,0-14.351,1.379-20.883,4.135
	c-6.535,2.756-12.444,6.777-17.729,12.06c-5.228,5.456-9.205,11.529-11.933,18.217c-2.729,6.692-4.091,13.855-4.091,21.493
	c0,7.579,1.362,14.743,4.091,21.489c2.728,6.75,6.705,12.822,11.933,18.218c5.227,5.342,11.08,9.375,17.557,12.104
	C115.694,424.879,122.712,426.241,130.271,426.241z"/>
<path fill="#5AB157" d="M289.814,433.133V307.028h61.747v10.768h-50.418v39.45h48.544v10.767h-48.544v65.12H289.814z"/>
<path fill="#5AB157" d="M606.06,338.727c-5.056-7.925-11.272-13.926-18.653-18.003c-7.382-4.076-15.699-6.117-24.953-6.117
	c-15.446,0-28.021,5.284-37.73,15.85c-9.709,10.566-14.564,24.263-14.564,41.088c0,7.523,1.292,14.614,3.875,21.275
	c2.583,6.661,6.345,12.575,11.285,17.742c4.996,5.113,10.589,8.945,16.778,11.5c6.188,2.557,12.973,3.832,20.355,3.832
	c13.966,0,25.336-4.162,34.108-12.489c8.774-8.326,13.272-19.208,13.5-32.646h-43.01v-9.904h55.443v1.378
	c0,20.098-5.421,35.833-16.266,47.204c-10.846,11.369-25.779,17.055-44.797,17.055c-18.908,0-34.21-6.087-45.906-18.263
	c-11.697-12.174-17.545-28.135-17.545-47.89c0-9.074,1.477-17.645,4.429-25.713c2.951-8.067,7.209-15.087,12.775-21.06
	c6.018-6.488,12.818-11.341,20.398-14.558c7.58-3.214,16.024-4.822,25.337-4.822c12.662,0,23.507,2.311,32.533,6.933
	c9.029,4.624,15.983,11.413,20.866,20.371L606.06,338.727z"/>
<path fill="#5AB157" d="M697.001,433.133l54.762-131.1l52.464,131.1h-12.35l-15.927-42.726h-50.928l-16.525,42.726H697.001z
	 M728.852,380.588h43.439l-21.293-54.87L728.852,380.588z"/>
<path fill="#5AB157" d="M942.775,438.042l-43.773-101.209l-9.453,96.3h-11.67l16.946-131.445l47.78,112.235l49.568-112.235
	l16.01,131.445h-11.666l-9.284-96.3L942.775,438.042z"/>
<path fill="#5AB157" d="M1099.381,433.133V307.028h61.748v10.768h-50.419v39.45h50.419v10.767h-50.419v54.353h50.419v10.768
	H1099.381z"/>
<path fill="#160D0F" d="M114.305,567.428h54.337v4.392c0,9.993-1.166,18.835-3.492,26.529c-2.272,7.122-6.104,13.781-11.499,19.985
	c-12.207,13.896-27.736,20.845-46.586,20.845c-18.396,0-34.151-6.721-47.268-20.158c-13.115-13.493-19.673-29.687-19.673-48.579
	c0-19.295,6.67-35.66,20.015-49.1c13.341-13.493,29.58-20.24,48.715-20.24c10.276,0,19.872,2.117,28.787,6.346
	c8.517,4.231,16.891,11.102,25.124,20.615l-14.138,13.696c-10.788-14.529-23.932-21.794-39.433-21.794
	c-13.912,0-25.58,4.854-35.004,14.557c-9.425,9.533-14.137,21.478-14.137,35.834c0,14.814,5.25,27.018,15.755,36.605
	c9.822,8.903,20.469,13.354,31.938,13.354c9.765,0,18.538-3.324,26.317-9.967c7.778-6.703,12.121-14.72,13.03-24.06h-32.789V567.428
	z"/>
<path fill="#160D0F" d="M258.305,569.579c0-18.721,6.784-34.798,20.355-48.237c13.512-13.437,29.751-20.155,48.715-20.155
	c18.737,0,34.805,6.776,48.205,20.329c13.457,13.552,20.185,29.833,20.185,48.84c0,19.122-6.758,35.346-20.27,48.665
	c-13.571,13.382-29.951,20.071-49.142,20.071c-16.977,0-32.223-5.943-45.735-17.831
	C265.743,608.112,258.305,590.886,258.305,569.579z M278.32,569.796c0,14.688,4.883,26.766,14.648,36.232
	c9.71,9.466,20.923,14.2,33.642,14.2c13.797,0,25.436-4.819,34.918-14.459c9.482-9.754,14.223-21.629,14.223-35.631
	c0-14.171-4.683-26.046-14.052-35.627c-9.312-9.641-20.837-14.46-34.578-14.46c-13.685,0-25.239,4.819-34.663,14.46
	C283.031,544.035,278.32,555.796,278.32,569.796z"/>
<path fill="#160D0F" d="M628.886,523.409l-16.097,9.647c-3.009-5.281-5.875-8.728-8.601-10.335
	c-2.841-1.837-6.503-2.757-10.988-2.757c-5.507,0-10.08,1.582-13.71,4.741c-3.636,3.104-5.453,7.011-5.453,11.723
	c0,6.494,4.771,11.724,14.309,15.688l13.118,5.433c10.672,4.367,18.479,9.696,23.42,15.989c4.937,6.293,7.408,14.009,7.408,23.144
	c0,12.242-4.03,22.356-12.091,30.344c-8.121,8.045-18.199,12.066-30.237,12.066c-11.412,0-20.837-3.431-28.275-10.299
	c-7.324-6.856-11.896-16.489-13.712-28.895l20.099-4.479c0.908,7.811,2.499,13.21,4.769,16.195
	c4.09,5.742,10.051,8.613,17.886,8.613c6.188,0,11.329-2.096,15.415-6.284c4.088-4.187,6.13-9.496,6.13-15.923
	c0-2.581-0.354-4.947-1.062-7.101c-0.71-2.153-1.817-4.133-3.322-5.94c-1.503-1.808-3.449-3.5-5.832-5.078
	c-2.385-1.576-5.226-3.085-8.519-4.519l-12.688-5.337c-18.002-7.69-26.999-18.937-26.999-33.742c0-9.982,3.774-18.333,11.328-25.047
	c7.551-6.769,16.948-10.156,28.189-10.156C608.531,501.102,620.372,508.538,628.886,523.409z"/>
<path fill="#160D0F" d="M763.773,522.55v114.13h-19.845V522.55h-30.233v-18.865h80.228v18.865H763.773z"/>
<path fill="#160D0F" d="M876.351,569.579c0-18.721,6.782-34.798,20.354-48.237c13.512-13.437,29.749-20.155,48.715-20.155
	c18.736,0,34.805,6.776,48.206,20.329c13.453,13.552,20.181,29.833,20.181,48.84c0,19.122-6.757,35.346-20.27,48.665
	c-13.567,13.382-29.949,20.071-49.141,20.071c-16.977,0-32.223-5.943-45.735-17.831
	C883.787,608.112,876.351,590.886,876.351,569.579z M896.364,569.796c0,14.688,4.882,26.766,14.646,36.232
	c9.713,9.466,20.924,14.2,33.642,14.2c13.801,0,25.437-4.819,34.92-14.459c9.482-9.754,14.224-21.629,14.224-35.631
	c0-14.171-4.686-26.046-14.055-35.627c-9.313-9.641-20.838-14.46-34.576-14.46c-13.684,0-25.239,4.819-34.664,14.46
	C901.077,544.035,896.364,555.796,896.364,569.796z"/>
<path fill="#160D0F" d="M1129.876,582.672v54.008h-19.845V503.685h22.485c11.011,0,19.33,0.776,24.951,2.327
	c5.681,1.548,10.678,4.479,14.989,8.785c7.553,7.464,11.329,16.884,11.329,28.251c0,12.176-4.032,21.823-12.094,28.943
	c-8.064,7.122-18.937,10.681-32.617,10.681H1129.876z M1129.876,564.066h7.407c18.228,0,27.341-7.093,27.341-21.275
	c0-13.723-9.396-20.586-28.19-20.586h-6.558V564.066z"/>
</svg>
