<?xml version="1.0" encoding="utf-8"?>
<!-- Generator: Adobe Illustrator 16.0.0, SVG Export Plug-In . SVG Version: 6.00 Build 0)  -->
<!DOCTYPE svg PUBLIC "-//W3C//DTD SVG 1.1//EN" "http://www.w3.org/Graphics/SVG/1.1/DTD/svg11.dtd">
<svg version="1.1" id="Layer_1" xmlns="http://www.w3.org/2000/svg" xmlns:xlink="http://www.w3.org/1999/xlink" x="0px" y="0px"
	 width="612px" height="792px" viewBox="0 0 612 792" enable-background="new 0 0 612 792" xml:space="preserve">
<g>
	<path fill="#FFFFFF" d="M24.266,388.445v35.178h-5.309v-35.178H24.266z"/>
	<path fill="#FFFFFF" d="M51.784,423.623v-37.57l25.654,26.839v-24.447h5.309v37.319l-25.654-26.771v24.629H51.784z"/>
	<path fill="#FFFFFF" d="M119.948,393.435v30.188h-5.309v-30.188h-8.088v-4.99h21.462v4.99H119.948z"/>
	<path fill="#FFFFFF" d="M163.733,408.631l10.891,14.992h-6.494l-10.047-14.399h-0.957v14.399h-5.309v-35.178h6.22
		c4.647,0,8.004,0.874,10.07,2.62c2.278,1.944,3.417,4.511,3.417,7.7c0,2.492-0.714,4.633-2.142,6.426
		C167.955,406.983,166.072,408.131,163.733,408.631z M157.125,404.599h1.686c5.027,0,7.542-1.921,7.542-5.765
		c0-3.599-2.446-5.399-7.336-5.399h-1.891V404.599z"/>
	<path fill="#FFFFFF" d="M197.22,405.875c0-4.951,1.815-9.205,5.445-12.759c3.615-3.554,7.959-5.331,13.032-5.331
		c5.013,0,9.311,1.792,12.896,5.377c3.6,3.584,5.4,7.891,5.4,12.918c0,5.058-1.808,9.349-5.423,12.873
		c-3.63,3.539-8.012,5.308-13.146,5.308c-4.542,0-8.62-1.571-12.235-4.716C199.209,416.066,197.22,411.51,197.22,405.875z
		 M202.574,405.932c0,3.885,1.306,7.08,3.918,9.584c2.598,2.504,5.597,3.756,9,3.756c3.691,0,6.805-1.275,9.341-3.824
		c2.537-2.58,3.805-5.722,3.805-9.424c0-3.749-1.253-6.891-3.759-9.425c-2.491-2.55-5.574-3.825-9.25-3.825
		c-3.661,0-6.751,1.275-9.273,3.825C203.834,399.118,202.574,402.229,202.574,405.932z"/>
	<path fill="#FFFFFF" d="M259.733,423.623v-35.178h7.382c3.539,0,6.334,0.35,8.384,1.048c2.202,0.684,4.2,1.846,5.992,3.486
		c3.63,3.312,5.445,7.664,5.445,13.055c0,5.407-1.891,9.782-5.673,13.124c-1.899,1.67-3.889,2.832-5.97,3.485
		c-1.944,0.653-4.701,0.979-8.27,0.979H259.733z M265.042,418.633h2.393c2.384,0,4.366-0.25,5.946-0.751
		c1.58-0.532,3.007-1.374,4.283-2.529c2.612-2.384,3.919-5.491,3.919-9.318c0-3.858-1.292-6.987-3.873-9.387
		c-2.324-2.142-5.75-3.212-10.275-3.212h-2.393V418.633z"/>
	<path fill="#FFFFFF" d="M317.986,388.445v21.173c0,3.021,0.493,5.229,1.481,6.625c1.473,2.019,3.546,3.028,6.22,3.028
		c2.688,0,4.769-1.01,6.242-3.028c0.987-1.351,1.481-3.56,1.481-6.625v-21.173h5.309v22.646c0,3.707-1.154,6.76-3.464,9.159
		c-2.597,2.674-5.786,4.01-9.568,4.01s-6.965-1.336-9.547-4.01c-2.309-2.399-3.463-5.452-3.463-9.159v-22.646H317.986z"/>
	<path fill="#FFFFFF" d="M392.211,390.325v6.277c-3.068-2.566-6.242-3.85-9.523-3.85c-3.615,0-6.661,1.298-9.137,3.896
		c-2.491,2.582-3.736,5.741-3.736,9.478c0,3.691,1.245,6.805,3.736,9.342s5.544,3.805,9.159,3.805c1.868,0,3.455-0.304,4.762-0.912
		c0.729-0.303,1.484-0.713,2.268-1.229c0.782-0.517,1.605-1.14,2.472-1.868v6.413c-3.038,1.724-6.228,2.586-9.569,2.586
		c-5.027,0-9.318-1.754-12.872-5.263c-3.54-3.539-5.309-7.807-5.309-12.805c0-4.48,1.48-8.475,4.442-11.984
		c3.646-4.298,8.361-6.448,14.148-6.448C386.211,387.762,389.264,388.616,392.211,390.325z"/>
	<path fill="#FFFFFF" d="M427.681,393.435v30.188h-5.309v-30.188h-8.088v-4.99h21.462v4.99H427.681z"/>
	<path fill="#FFFFFF" d="M464.858,388.445v35.178h-5.309v-35.178H464.858z"/>
	<path fill="#FFFFFF" d="M490.622,405.875c0-4.951,1.814-9.205,5.445-12.759c3.614-3.554,7.959-5.331,13.032-5.331
		c5.012,0,9.311,1.792,12.896,5.377c3.6,3.584,5.399,7.891,5.399,12.918c0,5.058-1.808,9.349-5.423,12.873
		c-3.63,3.539-8.012,5.308-13.146,5.308c-4.542,0-8.62-1.571-12.235-4.716C492.611,416.066,490.622,411.51,490.622,405.875z
		 M495.976,405.932c0,3.885,1.307,7.08,3.919,9.584c2.598,2.504,5.597,3.756,9,3.756c3.69,0,6.804-1.275,9.341-3.824
		c2.536-2.58,3.805-5.722,3.805-9.424c0-3.749-1.253-6.891-3.759-9.425c-2.491-2.55-5.575-3.825-9.25-3.825
		c-3.661,0-6.752,1.275-9.273,3.825C497.236,399.118,495.976,402.229,495.976,405.932z"/>
	<path fill="#FFFFFF" d="M553.135,423.623v-37.57l25.654,26.839v-24.447h5.309v37.319l-25.654-26.771v24.629H553.135z"/>
</g>
</svg>
