<?xml version="1.0" encoding="utf-8"?>
<!-- Generator: Adobe Illustrator 16.0.0, SVG Export Plug-In . SVG Version: 6.00 Build 0)  -->
<!DOCTYPE svg PUBLIC "-//W3C//DTD SVG 1.1//EN" "http://www.w3.org/Graphics/SVG/1.1/DTD/svg11.dtd">
<svg version="1.1" id="Layer_1" xmlns="http://www.w3.org/2000/svg" xmlns:xlink="http://www.w3.org/1999/xlink" x="0px" y="0px"
	 width="962px" height="1040px" viewBox="0 0 962 1040" enable-background="new 0 0 962 1040" xml:space="preserve">
<path fill="#333333" d="M20.828,215.026c0-71.786,58.195-129.972,129.978-129.972c71.786,0,129.983,58.186,129.983,129.972
	c0,71.783-58.197,129.979-129.983,129.979C79.023,345.006,20.828,286.809,20.828,215.026z"/>
<g>
	<linearGradient id="SVGID_1_" gradientUnits="userSpaceOnUse" x1="95.1289" y1="198.5312" x2="115.4468" y2="198.5312">
		<stop  offset="0" style="stop-color:#C27162"/>
		<stop  offset="1" style="stop-color:#CB8777"/>
	</linearGradient>
	<path fill="url(#SVGID_1_)" d="M115.446,198.641c-0.058,5.596-4.644,10.087-10.251,10.029c-5.614-0.042-10.115-4.641-10.065-10.225
		c0.061-5.611,4.641-10.104,10.263-10.053C110.998,188.441,115.501,193.029,115.446,198.641z"/>
	<linearGradient id="SVGID_2_" gradientUnits="userSpaceOnUse" x1="182.9463" y1="200.1094" x2="203.2593" y2="200.1094">
		<stop  offset="0" style="stop-color:#C27162"/>
		<stop  offset="1" style="stop-color:#CB8777"/>
	</linearGradient>
	<path fill="url(#SVGID_2_)" d="M203.259,200.207c-0.046,5.604-4.638,10.105-10.242,10.051c-5.621-0.058-10.125-4.641-10.07-10.249
		c0.058-5.599,4.642-10.108,10.268-10.047C198.822,190.022,203.313,194.593,203.259,200.207z"/>
	<path fill="#0C0E15" d="M194.09,179.135c-0.236,24.46-19.59,33.571-44.062,33.346c-24.476-0.25-44.826-9.734-44.583-34.197
		c0.228-24.448,20.272-44.084,44.748-43.847C174.67,134.668,194.321,154.69,194.09,179.135z"/>
	<path fill="#E29985" d="M192.527,265.49c-0.115,13.028-10.778,23.465-23.818,23.351l-41.277-0.393
		c-13.028-0.134-23.489-10.777-23.362-23.799l11.103-91.52c0.131-13.01,10.791-23.461,23.815-23.337l22.121,0.216
		c13.025,0.116,23.499,10.79,23.369,23.794L192.527,265.49z"/>
	<path fill="#EDA68E" d="M192.421,264.712l-8.053-91.699c0.124-13.026-10.343-23.672-23.368-23.8l-22.127-0.207
		c-13.022-0.131-23.681,10.309-23.8,23.337c0,0-2.864,16.113-1.359,24.618c16.821-22.934,30.816-1.284,30.816-1.284l-1.332,21.823
		l9.563,0.633l-2.895,24.359l-6.276,45.316l25.006,0.247C181.64,288.177,192.299,277.716,192.421,264.712z"/>
	<path fill="#BE1E2D" d="M132.808,239.309c0,0,17.262,8.872,35.673,1.676C169.288,246.432,144.782,263.925,132.808,239.309z"/>
	<path fill="#191D21" d="M117.475,192.315c0,0,12.043-19.111,25.175,1.375C135.308,186.933,126.058,186.111,117.475,192.315z"/>
	<path fill="#191D21" d="M154.872,192.315c0,0,12.037-19.12,25.175,1.338C172.702,186.926,163.457,186.1,154.872,192.315z"/>
	<g>
		<path fill="#0C0E15" d="M150.714,221.833c-21.61-8.817-24.197,30.648-36.526,17.146
			C122.031,256.413,160.075,248.333,150.714,221.833z"/>
		<path fill="#0C0E15" d="M151.165,221.863c22.58-5.924,19.993,33.543,33.965,21.774
			C175.086,259.883,138.423,246.922,151.165,221.863z"/>
	</g>
</g>
<path fill="#333333" d="M682.383,215.026c0-71.786,58.198-129.972,129.982-129.972c71.782,0,129.982,58.186,129.982,129.972
	c0,71.783-58.2,129.979-129.982,129.979C740.581,345.006,682.383,286.809,682.383,215.026z"/>
<g>
	<path fill="#FFFFFF" d="M867.78,203.914l-108.364,3.078c1.134,5.672,5.221,22.407,5.221,28.416c0,13.497-3.027,26.285-8.412,37.74
		c18.445,6.708,38.35,10.383,59.113,10.383c20.766,0,40.666-3.674,59.114-10.383c-5.39-11.456-8.412-24.243-8.412-37.74
		C866.04,229.398,866.641,209.583,867.78,203.914z"/>
	<linearGradient id="SVGID_3_" gradientUnits="userSpaceOnUse" x1="814.5605" y1="139.1533" x2="815.4807" y2="194.3658">
		<stop  offset="0" style="stop-color:#E9907D"/>
		<stop  offset="1" style="stop-color:#F8AC98"/>
	</linearGradient>
	<path fill="url(#SVGID_3_)" d="M765.306,187.042c-0.305,2.78-0.474,5.711-0.474,8.826c0,37.174,22.687,88.655,50.674,88.655
		c27.985,0,50.674-51.481,50.674-88.655c0-3.114-0.18-6.046-0.49-8.826l-51.445-26.645L765.306,187.042z"/>
	<path fill="#FFFFFF" d="M817.071,140.738c-32.149,0-58.216,26.062-58.216,58.213c0,6.24,0.998,12.231,2.82,17.87l1.553-0.292
		c0,0,7.418-25.068,20.081-34.918c16.075,54.625,79.202,15.692,74.406,65.972c6.74-9.501,17.565-36.092,17.565-48.63
		C875.281,166.8,849.222,140.738,817.071,140.738z"/>
	<g>
		<path d="M789.109,224.186c6.275-1.551,12.422-1.329,17.547,0.289c-4.541-5.252-11.772-7.843-18.977-6.064
			c-7.195,1.779-8.324,6.53-16.891,2.248C774.539,225.21,782.831,225.736,789.109,224.186z"/>
		<path d="M841.896,224.186c-6.274-1.551-12.42-1.329-17.545,0.289c4.538-5.252,11.778-7.843,18.972-6.064
			c7.202,1.779,8.322,6.53,16.896,2.248C856.475,225.21,848.177,225.736,841.896,224.186z"/>
		<g>
			<path fill="#F05B26" d="M823.911,253.636c0-0.031,0.003-0.055,0.003-0.085c0,0-0.008,0.007-0.008,0.012
				c-0.057-2.442-2.045-4.409-4.497-4.409c-1.806,0-3.355,1.076-4.071,2.615c-0.721-1.539-2.265-2.615-4.074-2.615
				c-2.448,0-4.438,1.967-4.492,4.404c-0.006,0-0.006-0.007-0.011-0.007c0,0.03,0.005,0.055,0.005,0.085
				c0,0-0.005,0.016-0.005,0.027c0,0,0.005,0.034,0.005,0.053c0.061,6.666,3.877,12.042,8.572,12.042
				c4.696,0,8.507-5.377,8.568-12.042c0-0.019,0.008-0.038,0.008-0.038C823.914,253.652,823.911,253.642,823.911,253.636z
				 M815.312,255.601c0.005-0.019,0.015-0.033,0.026-0.049c0.011,0.016,0.018,0.03,0.028,0.049
				C815.349,255.601,815.326,255.601,815.312,255.601z"/>
			<path fill="#FFFFFF" d="M815.433,263.176c-0.776-0.134-3.123-2.698-4.99-9.223h9.969
				C818.547,260.49,816.202,263.042,815.433,263.176L815.433,263.176z"/>
		</g>
	</g>
</g>
<path fill="#333333" d="M612.238,817.838c0,71.865-58.258,130.125-130.127,130.125c-71.868,0-130.126-58.26-130.126-130.125
	c0-71.872,58.259-130.13,130.126-130.13C553.98,687.708,612.238,745.966,612.238,817.838z"/>
<g>
	<path fill="#FEA672" d="M514.739,819.011c-0.203,6.221,4.668,11.422,10.896,11.622c6.228,0.201,11.427-4.677,11.626-10.898
		c0.196-6.216-4.679-11.417-10.911-11.618C520.131,807.919,514.941,812.801,514.739,819.011z"/>
	<g>
		<path fill="#FECA8C" d="M427.047,816.106c0.76,6.177,6.379,10.561,12.556,9.792c6.189-0.761,10.567-6.384,9.808-12.557
			c-0.766-6.174-6.38-10.553-12.575-9.793C430.665,804.311,426.277,809.933,427.047,816.106z"/>
		<path fill="#181512" d="M431.86,775.2c-0.881,27.44,20.671,50.391,48.12,51.27c27.449,0.88,50.427-20.646,51.313-48.084
			c0.875-27.418-20.68-50.366-48.132-51.248C455.713,726.256,432.737,747.787,431.86,775.2z"/>
		<path fill="#FECA8C" d="M441.278,854.056c-0.693,21.641,16.288,39.742,37.925,40.429l0,0
			c21.643,0.694,39.751-16.282,40.439-37.922l1.957-61.081c0.688-21.638-16.291-39.744-37.923-40.432l0,0
			c-21.651-0.7-39.75,16.282-40.44,37.921L441.278,854.056z"/>
		<path fill="#FEA672" d="M481.302,873.921l1.38-36.999l11.539,0.368c0,0-3.883-55.57-5.154-62.787
			c-2.26-12.859-2.285-10.851-2.595-19.259c20.559,1.831,36.368,19.371,35.7,40.255l-1.959,61.081
			c-0.605,18.879-16.848,37.713-39.193,38.136C492.225,884.576,481.302,873.921,481.302,873.921z"/>
		<path fill="#FFFFFF" d="M502.092,845.44c0,0-20.798,13.815-40.508-3.06C459.875,852.565,484.939,890.112,502.092,845.44z"/>
		<path fill="#181512" d="M452.412,757.389c-0.469,14.484,12.479,26.649,28.911,27.173c16.433,0.527,30.133-10.785,30.594-25.267
			c0.469-14.479-12.478-26.646-28.914-27.172C466.568,731.598,452.877,742.91,452.412,757.389z"/>
		<path fill="#181512" d="M514.378,814.35c0,0-9.851-17.181-22.093,0.271C498.955,808.993,507.085,808.604,514.378,814.35z"/>
		<path fill="#181512" d="M474.274,812.744c0,0-9.848-17.181-22.09,0.264C458.854,807.381,466.981,807,474.274,812.744z"/>
	</g>
</g>
<g>
	<path fill="#333333" d="M33.45,59.282v-40.07h7.308c2.883,0,5.004,0.155,6.364,0.465c1.359,0.311,2.541,0.821,3.544,1.533
		c1.259,0.913,2.235,2.162,2.928,3.75c0.693,1.588,1.04,3.349,1.04,5.283c0,3.814-1.067,6.61-3.202,8.389
		c-2.135,1.779-5.511,2.669-10.127,2.669H37.09v17.982H33.45z M37.09,38.098h2.491c4.416,0,7.385-0.561,8.909-1.683
		s2.286-3.088,2.286-5.898c0-1.186-0.174-2.276-0.52-3.271c-0.347-0.994-0.867-1.884-1.56-2.668
		c-0.712-0.803-1.679-1.369-2.901-1.697c-1.223-0.328-3.294-0.493-6.213-0.493H37.09V38.098z"/>
	<path fill="#333333" d="M63.214,59.282v-40.07h3.64v36.648h13.74v3.421H63.214z"/>
	<path fill="#333333" d="M85.946,59.282l17.599-41.657l16.86,41.657h-3.969l-5.118-13.576H94.951l-5.31,13.576H85.946z
		 M96.182,42.586h13.959l-6.843-17.435L96.182,42.586z"/>
	<path fill="#333333" d="M132.439,59.282V40.835l-13.302-21.623h4.379l10.756,18.365l10.812-18.365h4.16L136.08,40.835v18.447
		H132.439z"/>
	<path fill="#333333" d="M156.883,59.282v-40.07h19.843v3.421h-16.203v12.536h16.203v3.421h-16.203v17.271h16.203v3.421H156.883z"/>
	<path fill="#333333" d="M211.803,59.282h-4.434L193.3,40.178h-2.189v19.104h-3.64v-40.07h7.362c4.343,0,7.595,0.903,9.757,2.709
		c2.163,1.807,3.244,4.543,3.244,8.211c0,3.12-0.926,5.574-2.778,7.362c-1.852,1.789-4.402,2.682-7.65,2.682L211.803,59.282z
		 M191.111,22.387v14.808h3.667c3.394,0,5.762-0.543,7.103-1.629c1.341-1.085,2.012-2.933,2.012-5.542
		c0-2.755-0.693-4.716-2.08-5.884c-1.387-1.167-3.732-1.752-7.034-1.752H191.111z"/>
	<path fill="#333333" d="M240.043,59.282V17.023h6.35c2.828,0,5.082,0.219,6.761,0.657c1.697,0.438,3.129,1.177,4.297,2.217
		c1.186,1.077,2.125,2.418,2.819,4.023c0.711,1.625,1.067,3.267,1.067,4.927c0,3.029-1.159,5.593-3.476,7.691
		c2.244,0.767,4.014,2.107,5.31,4.023c1.314,1.898,1.971,4.105,1.971,6.624c0,3.303-1.168,6.095-3.503,8.375
		c-1.405,1.405-2.983,2.381-4.735,2.928c-1.916,0.53-4.315,0.794-7.198,0.794H240.043z M246.42,35.169h1.998
		c2.372,0,4.11-0.524,5.214-1.574c1.104-1.049,1.656-2.595,1.656-4.639c0-1.988-0.566-3.499-1.697-4.53
		c-1.132-1.03-2.774-1.546-4.927-1.546h-2.244V35.169z M246.42,53.288h3.941c2.883,0,5-0.565,6.35-1.697
		c1.423-1.222,2.135-2.773,2.135-4.653c0-1.825-0.684-3.357-2.053-4.598c-1.332-1.222-3.713-1.834-7.144-1.834h-3.229V53.288z"/>
</g>
<g>
	<path fill="#333333" d="M693.332,59.282v-40.07h7.308c2.883,0,5.004,0.155,6.363,0.465c1.359,0.311,2.541,0.821,3.545,1.533
		c1.259,0.913,2.234,2.162,2.929,3.75c0.693,1.588,1.04,3.349,1.04,5.283c0,3.814-1.067,6.61-3.202,8.389
		c-2.136,1.779-5.511,2.669-10.127,2.669h-4.216v17.982H693.332z M696.972,38.098h2.491c4.415,0,7.385-0.561,8.909-1.683
		c1.523-1.122,2.285-3.088,2.285-5.898c0-1.186-0.174-2.276-0.521-3.271c-0.347-0.994-0.866-1.884-1.56-2.668
		c-0.712-0.803-1.679-1.369-2.901-1.697c-1.223-0.328-3.294-0.493-6.213-0.493h-2.491V38.098z"/>
	<path fill="#333333" d="M723.097,59.282v-40.07h3.64v36.648h13.74v3.421H723.097z"/>
	<path fill="#333333" d="M745.828,59.282l17.599-41.657l16.859,41.657h-3.968l-5.119-13.576h-16.367l-5.31,13.576H745.828z
		 M756.064,42.586h13.958l-6.842-17.435L756.064,42.586z"/>
	<path fill="#333333" d="M792.321,59.282V40.835L779.02,19.212h4.38l10.756,18.365l10.812-18.365h4.16l-13.165,21.623v18.447
		H792.321z"/>
	<path fill="#333333" d="M816.766,59.282v-40.07h19.843v3.421h-16.203v12.536h16.203v3.421h-16.203v17.271h16.203v3.421H816.766z"/>
	<path fill="#333333" d="M871.686,59.282h-4.435l-14.067-19.104h-2.19v19.104h-3.64v-40.07h7.362c4.343,0,7.596,0.903,9.758,2.709
		c2.162,1.807,3.243,4.543,3.243,8.211c0,3.12-0.927,5.574-2.778,7.362c-1.852,1.789-4.402,2.682-7.649,2.682L871.686,59.282z
		 M850.993,22.387v14.808h3.668c3.394,0,5.762-0.543,7.103-1.629c1.341-1.085,2.012-2.933,2.012-5.542
		c0-2.755-0.693-4.716-2.08-5.884c-1.387-1.167-3.731-1.752-7.034-1.752H850.993z"/>
	<path fill="#333333" d="M924.75,49.019h-18.091l-4.708,10.264h-6.87l20.911-44.914l20.172,44.914h-6.979L924.75,49.019z
		 M922.15,43.024l-6.268-14.369l-6.569,14.369H922.15z"/>
</g>
<g>
	<path fill="#333333" d="M356.361,1011.489V971.42h7.308c2.883,0,5.004,0.155,6.364,0.465c1.359,0.311,2.541,0.821,3.544,1.533
		c1.259,0.912,2.235,2.162,2.928,3.749c0.693,1.588,1.04,3.349,1.04,5.282c0,3.814-1.067,6.61-3.202,8.39
		c-2.135,1.778-5.511,2.668-10.127,2.668h-4.215v17.982H356.361z M360.001,990.305h2.491c4.416,0,7.385-0.561,8.909-1.684
		c1.523-1.122,2.286-3.088,2.286-5.897c0-1.187-0.174-2.276-0.52-3.271c-0.347-0.994-0.867-1.884-1.56-2.668
		c-0.712-0.803-1.679-1.368-2.901-1.697c-1.223-0.328-3.294-0.492-6.213-0.492h-2.491V990.305z"/>
	<path fill="#333333" d="M386.126,1011.489V971.42h3.64v36.648h13.74v3.421H386.126z"/>
	<path fill="#333333" d="M408.857,1011.489l17.599-41.657l16.86,41.657h-3.969l-5.118-13.575h-16.367l-5.31,13.575H408.857z
		 M419.094,994.794h13.959l-6.843-17.436L419.094,994.794z"/>
	<path fill="#333333" d="M455.351,1011.489v-18.447l-13.301-21.622h4.378l10.757,18.365l10.812-18.365h4.16l-13.165,21.622v18.447
		H455.351z"/>
	<path fill="#333333" d="M479.795,1011.489V971.42h19.843v3.421h-16.203v12.535h16.203v3.422h-16.203v17.271h16.203v3.421H479.795z"
		/>
	<path fill="#333333" d="M534.715,1011.489h-4.435l-14.067-19.104h-2.19v19.104h-3.64V971.42h7.362c4.343,0,7.596,0.902,9.758,2.709
		s3.243,4.544,3.243,8.211c0,3.12-0.927,5.575-2.778,7.363s-4.402,2.682-7.649,2.682L534.715,1011.489z M514.022,974.595v14.807
		h3.668c3.394,0,5.762-0.542,7.103-1.628s2.012-2.934,2.012-5.543c0-2.755-0.693-4.717-2.08-5.885
		c-1.387-1.167-3.731-1.751-7.034-1.751H514.022z"/>
	<path fill="#333333" d="M594.185,971.487v7.541c-3.687-3.083-7.5-4.625-11.441-4.625c-4.343,0-8.001,1.56-10.975,4.68
		c-2.993,3.103-4.489,6.897-4.489,11.386c0,4.435,1.496,8.175,4.489,11.222c2.992,3.048,6.659,4.571,11.002,4.571
		c2.245,0,4.151-0.365,5.721-1.095c0.876-0.365,1.783-0.857,2.724-1.479c0.939-0.62,1.93-1.368,2.97-2.244v7.704
		c-3.65,2.072-7.481,3.107-11.496,3.107c-6.039,0-11.194-2.107-15.464-6.322c-4.252-4.252-6.377-9.379-6.377-15.383
		c0-5.382,1.779-10.182,5.337-14.396c4.379-5.163,10.045-7.745,16.997-7.745C586.977,968.409,590.645,969.436,594.185,971.487z"/>
</g>
<rect x="449" y="460" fill="#333333" width="69" height="108"/>
<rect x="536" y="487" fill="#808080" width="69" height="105"/>
<rect x="624" y="487" fill="#808080" width="66" height="105"/>
<rect x="710" y="487" fill="#808080" width="69" height="105"/>
<rect x="798" y="487" fill="#808080" width="67" height="105"/>
<rect x="100" y="487" fill="#808080" width="69" height="105"/>
<rect x="188" y="487" fill="#808080" width="67" height="105"/>
<rect x="274" y="487" fill="#808080" width="69" height="105"/>
<rect x="361" y="487" fill="#808080" width="68" height="105"/>
<g>
	<path fill="#333333" d="M423.433,400.339v-26.713h4.16c3.71,0,6.344,0.183,7.901,0.547c1.557,0.365,2.895,0.992,4.015,1.88
		c1.484,1.18,2.615,2.7,3.394,4.562s1.168,3.99,1.168,6.387s-0.39,4.528-1.168,6.396s-1.897,3.36-3.357,4.479
		c-1.156,0.888-2.476,1.521-3.959,1.897c-1.484,0.377-3.875,0.565-7.171,0.565h-0.821H423.433z M425.86,398.24h3.412
		c2.761,0,4.72-0.155,5.875-0.465c1.156-0.311,2.135-0.836,2.938-1.578c1.119-1.047,1.964-2.348,2.536-3.905
		c0.572-1.557,0.857-3.333,0.857-5.328c0-2.044-0.289-3.844-0.867-5.4c-0.578-1.558-1.432-2.835-2.563-3.832
		c-0.852-0.767-1.892-1.308-3.12-1.624c-1.229-0.316-3.375-0.475-6.441-0.475h-0.456h-2.171V398.24z"/>
	<path fill="#333333" d="M450.856,387.402c0.827-1.399,1.639-2.391,2.436-2.975s1.725-0.876,2.783-0.876
		c0.315,0,0.635,0.03,0.957,0.092c0.322,0.061,0.642,0.146,0.958,0.255l-0.729,2.117c-0.243-0.073-0.496-0.134-0.757-0.183
		c-0.262-0.049-0.515-0.073-0.758-0.073c-1.35,0-2.503,0.633-3.458,1.897c-0.955,1.266-1.432,2.841-1.432,4.727v7.955h-2.244
		v-16.185h2.244V387.402z"/>
	<path fill="#333333" d="M471.642,400.339v-2.956c-0.536,1.192-1.287,2.102-2.254,2.728c-0.967,0.627-2.107,0.94-3.421,0.94
		c-2.324,0-4.194-0.797-5.611-2.391s-2.126-3.698-2.126-6.313c0-2.591,0.699-4.704,2.099-6.341c1.399-1.636,3.205-2.454,5.42-2.454
		c1.374,0,2.563,0.301,3.566,0.903c1.004,0.603,1.779,1.487,2.327,2.655v-2.956h2.244v16.185H471.642z M460.729,392.42
		c0,2.092,0.472,3.704,1.414,4.835c0.943,1.132,2.29,1.697,4.042,1.697c1.703,0,3.044-0.617,4.023-1.853
		c0.979-1.234,1.469-2.935,1.469-5.1c0-1.982-0.486-3.543-1.46-4.68c-0.973-1.138-2.305-1.706-3.996-1.706
		c-1.69,0-3.028,0.604-4.014,1.815C461.223,388.64,460.729,390.303,460.729,392.42z"/>
	<path fill="#333333" d="M483.019,401.379l-6.459-17.225h2.354l4.216,11.659l5.091-12.517l5.072,12.517l4.233-11.659h2.354
		l-6.478,17.225l-5.146-12.882L483.019,401.379z"/>
	<path fill="#333333" d="M502.061,377.841c0-0.475,0.17-0.879,0.511-1.214c0.34-0.334,0.748-0.501,1.223-0.501
		c0.474,0,0.885,0.167,1.231,0.501c0.347,0.335,0.52,0.739,0.52,1.214c0,0.486-0.167,0.894-0.502,1.223
		c-0.334,0.328-0.751,0.492-1.249,0.492c-0.487,0-0.897-0.164-1.232-0.492C502.228,378.734,502.061,378.327,502.061,377.841z
		 M502.626,400.339v-16.185h2.317v16.185H502.626z"/>
	<path fill="#333333" d="M509.916,400.339v-16.185h2.135v2.5c0.657-1.034,1.463-1.81,2.418-2.327
		c0.955-0.517,2.053-0.775,3.294-0.775c1.836,0,3.266,0.511,4.288,1.533c1.021,1.021,1.532,2.444,1.532,4.27v10.984h-2.281v-9.98
		c0-1.618-0.337-2.819-1.013-3.604c-0.675-0.784-1.718-1.177-3.129-1.177c-1.715,0-2.978,0.508-3.786,1.523
		c-0.81,1.017-1.214,2.612-1.214,4.79v8.448H509.916z"/>
	<path fill="#333333" d="M542.911,384.154v13.375c0,2.129-0.058,3.752-0.173,4.871c-0.116,1.119-0.308,1.953-0.575,2.5
		c-0.56,1.204-1.417,2.102-2.572,2.691c-1.156,0.59-2.616,0.885-4.38,0.885c-2.152,0-3.828-0.416-5.026-1.25
		c-1.198-0.833-1.925-2.095-2.181-3.786h2.81c0.183,0.998,0.66,1.752,1.433,2.263s1.821,0.767,3.147,0.767
		c0.997,0,1.895-0.177,2.691-0.529s1.396-0.839,1.798-1.46c0.267-0.401,0.459-0.866,0.574-1.396s0.174-1.348,0.174-2.454v-0.857
		v-2.427c-0.499,1.155-1.263,2.062-2.29,2.719c-1.028,0.656-2.205,0.985-3.531,0.985c-2.274,0-4.09-0.791-5.446-2.372
		s-2.034-3.704-2.034-6.368c0-2.64,0.693-4.76,2.08-6.359s3.223-2.399,5.51-2.399c1.277,0,2.437,0.332,3.477,0.994
		c1.04,0.664,1.785,1.542,2.235,2.637v-3.028H542.911z M535.175,385.614c-1.679,0-3.002,0.599-3.969,1.797s-1.45,2.844-1.45,4.936
		c0,2.08,0.459,3.701,1.377,4.863c0.919,1.161,2.192,1.742,3.823,1.742c1.727,0,3.111-0.614,4.151-1.843s1.56-2.883,1.56-4.963
		c0-2.044-0.486-3.644-1.46-4.799C538.234,386.191,536.89,385.614,535.175,385.614z"/>
	<path fill="#333333" d="M446.475,441.054l2.135-1.223c0.354,0.9,0.864,1.578,1.533,2.034s1.49,0.685,2.463,0.685
		c0.949,0,1.703-0.24,2.263-0.721s0.84-1.122,0.84-1.925c0-1.241-1.102-2.293-3.303-3.157c-0.231-0.085-0.414-0.157-0.548-0.219
		c-1.703-0.669-2.895-1.359-3.576-2.071c-0.682-0.711-1.021-1.59-1.021-2.637c0-1.374,0.486-2.502,1.46-3.385
		c0.973-0.882,2.231-1.322,3.776-1.322c1.314,0,2.433,0.286,3.357,0.857c0.925,0.572,1.6,1.387,2.025,2.445l-2.062,1.149
		c-0.256-0.767-0.682-1.351-1.277-1.752s-1.326-0.602-2.189-0.602c-0.778,0-1.421,0.228-1.925,0.684
		c-0.505,0.456-0.758,1.025-0.758,1.706c0,0.669,0.249,1.223,0.748,1.66c0.499,0.438,1.533,0.919,3.103,1.442
		c1.775,0.62,2.971,1.295,3.585,2.025c0.614,0.729,0.922,1.739,0.922,3.028c0,1.484-0.529,2.671-1.588,3.559
		s-2.481,1.332-4.27,1.332c-1.375,0-2.558-0.313-3.549-0.94C447.627,443.082,446.913,442.197,446.475,441.054z"/>
	<path fill="#333333" d="M462.859,429.668h-2.975v-1.916h2.975v-6.642h2.208v6.642h3.248v1.916h-3.248v14.269h-2.208V429.668z"/>
	<path fill="#333333" d="M477.901,444.648c-1.155,0-2.263-0.229-3.32-0.685c-1.059-0.456-2.02-1.11-2.884-1.962
		c-0.814-0.803-1.436-1.727-1.86-2.773c-0.427-1.046-0.639-2.165-0.639-3.357c0-1.18,0.219-2.299,0.656-3.357
		c0.438-1.058,1.064-1.994,1.88-2.81c0.827-0.827,1.77-1.46,2.828-1.897c1.059-0.438,2.171-0.657,3.339-0.657
		c1.192,0,2.326,0.219,3.403,0.657c1.076,0.438,2.034,1.07,2.874,1.897c0.839,0.827,1.48,1.77,1.925,2.828
		c0.443,1.059,0.666,2.172,0.666,3.339c0,1.168-0.219,2.278-0.657,3.33c-0.438,1.053-1.07,1.986-1.897,2.801
		c-0.852,0.852-1.821,1.506-2.91,1.962S479.081,444.648,477.901,444.648z M477.975,442.55c1.775,0,3.281-0.642,4.516-1.925
		s1.853-2.855,1.853-4.717c0-1.886-0.614-3.467-1.843-4.744c-1.229-1.277-2.737-1.916-4.525-1.916c-1.776,0-3.278,0.639-4.507,1.916
		s-1.843,2.858-1.843,4.744c0,1.861,0.614,3.434,1.843,4.717S476.198,442.55,477.975,442.55z"/>
	<path fill="#333333" d="M503.296,430.708c-0.755-0.523-1.558-0.916-2.409-1.178c-0.852-0.261-1.728-0.392-2.627-0.392
		c-2.008,0-3.607,0.642-4.799,1.925c-1.192,1.283-1.788,2.995-1.788,5.137c0,1.897,0.617,3.461,1.852,4.689s2.812,1.843,4.735,1.843
		c0.876,0,1.761-0.152,2.654-0.456c0.895-0.305,1.773-0.761,2.637-1.369v2.464c-0.791,0.45-1.666,0.787-2.627,1.013
		c-0.961,0.225-1.989,0.337-3.084,0.337c-2.47,0-4.495-0.812-6.076-2.436s-2.372-3.701-2.372-6.231c0-2.64,0.824-4.783,2.473-6.432
		c1.647-1.648,3.792-2.473,6.432-2.473c0.973,0,1.889,0.095,2.746,0.283s1.621,0.459,2.29,0.812L503.296,430.708z"/>
	<path fill="#333333" d="M506.567,443.937v-28.282h2.244v19.269l8.065-7.171h3.102l-8.667,7.262l9.306,8.923h-3.102l-8.704-8.375
		v8.375H506.567z"/>
</g>
</svg>
