<?xml version="1.0" encoding="utf-8"?>
<!-- Generator: Adobe Illustrator 16.0.0, SVG Export Plug-In . SVG Version: 6.00 Build 0)  -->
<!DOCTYPE svg PUBLIC "-//W3C//DTD SVG 1.1//EN" "http://www.w3.org/Graphics/SVG/1.1/DTD/svg11.dtd">
<svg version="1.1" id="Layer_1" xmlns="http://www.w3.org/2000/svg" xmlns:xlink="http://www.w3.org/1999/xlink" x="0px" y="0px"
	 width="612px" height="792px" viewBox="0 0 612 792" enable-background="new 0 0 612 792" xml:space="preserve">
<g enable-background="new    ">
	<path fill="#F2F2F2" d="M24.292,419.06h11.983v4.563H14.664l11.17-13.525c1.097-1.347,2.018-2.514,2.761-3.501
		c0.743-0.986,1.31-1.812,1.699-2.479c0.792-1.306,1.188-2.48,1.188-3.522c0-1.5-0.528-2.757-1.583-3.771
		c-1.056-1.014-2.362-1.521-3.918-1.521c-3.251,0-5.113,1.925-5.585,5.772H15.56c0.778-6.779,4.203-10.17,10.274-10.17
		c2.931,0,5.39,0.932,7.377,2.793c2,1.861,3.001,4.168,3.001,6.919c0,1.75-0.466,3.467-1.396,5.147
		c-0.473,0.875-1.164,1.914-2.074,3.115c-0.91,1.202-2.06,2.623-3.449,4.262L24.292,419.06z"/>
	<path fill="#F2F2F2" d="M59.29,407.389c0-4.529,1.66-8.419,4.981-11.67c3.306-3.251,7.28-4.877,11.92-4.877
		c4.584,0,8.516,1.64,11.795,4.919c3.292,3.278,4.939,7.217,4.939,11.815c0,4.627-1.654,8.552-4.96,11.774
		c-3.321,3.237-7.329,4.856-12.024,4.856c-4.154,0-7.885-1.438-11.191-4.314C61.11,416.711,59.29,412.544,59.29,407.389z
		 M64.187,407.441c0,3.554,1.195,6.476,3.584,8.766c2.376,2.29,5.12,3.436,8.232,3.436c3.376,0,6.224-1.166,8.544-3.498
		c2.32-2.359,3.48-5.233,3.48-8.62c0-3.429-1.146-6.302-3.438-8.62c-2.279-2.332-5.099-3.498-8.461-3.498
		c-3.349,0-6.176,1.166-8.482,3.498C65.34,401.209,64.187,404.055,64.187,407.441z"/>
	<path fill="#F2F2F2" d="M111.894,409.91l9.961,13.713h-5.939l-9.19-13.171h-0.875v13.171h-4.855v-32.177h5.689
		c4.251,0,7.322,0.799,9.211,2.396c2.084,1.779,3.126,4.127,3.126,7.044c0,2.279-0.653,4.238-1.959,5.877
		C115.756,408.403,114.033,409.452,111.894,409.91z M105.85,406.222h1.542c4.599,0,6.898-1.757,6.898-5.272
		c0-3.293-2.237-4.938-6.71-4.938h-1.73V406.222z"/>
	<path fill="#F2F2F2" d="M150.977,408.681v-4.146c2.056,0,3.438-0.229,4.147-0.688c1.264-0.805,1.896-2.098,1.896-3.876
		c0-1.375-0.458-2.493-1.375-3.355c-0.903-0.875-2.077-1.312-3.522-1.312c-1.348,0-2.39,0.327-3.126,0.979
		c-0.708,0.667-1.237,1.792-1.584,3.376h-4.835c0.5-3.028,1.528-5.248,3.084-6.658c1.556-1.41,3.73-2.115,6.523-2.115
		c2.82,0,5.119,0.834,6.898,2.501c1.778,1.653,2.667,3.786,2.667,6.397c0,2.945-1.167,5.238-3.501,6.877
		c2.681,1.57,4.022,4.12,4.022,7.648c0,2.89-0.977,5.252-2.928,7.086c-1.952,1.834-4.449,2.75-7.492,2.75
		c-3.876,0-6.752-1.424-8.628-4.271c-0.778-1.195-1.271-2.848-1.479-4.96h4.689c0.25,1.556,0.858,2.747,1.824,3.574
		c0.965,0.826,2.226,1.239,3.782,1.239c1.57,0,2.869-0.521,3.897-1.562c1.028-1.069,1.542-2.424,1.542-4.063
		c0-2.168-0.771-3.71-2.313-4.627C154.263,408.945,152.866,408.681,150.977,408.681z"/>
	<path fill="#F2F2F2" d="M192.082,410.557v13.066h-4.855v-32.177h5.501c2.695,0,4.731,0.188,6.106,0.562
		c1.389,0.375,2.612,1.084,3.668,2.126c1.848,1.807,2.771,4.085,2.771,6.836c0,2.945-0.986,5.279-2.959,7.002
		c-1.973,1.723-4.634,2.584-7.981,2.584H192.082z M192.082,406.055h1.813c4.46,0,6.69-1.715,6.69-5.146
		c0-3.321-2.3-4.981-6.898-4.981h-1.604V406.055z"/>
	<path fill="#F2F2F2" d="M229.994,396.011h-12.9v7.731h12.525v4.563h-12.525v10.754h12.9v4.563h-17.755v-32.177h17.755V396.011z"/>
	<path fill="#F2F2F2" d="M236.729,407.389c0-4.529,1.66-8.419,4.981-11.67c3.306-3.251,7.28-4.877,11.92-4.877
		c4.584,0,8.516,1.64,11.795,4.919c3.292,3.278,4.939,7.217,4.939,11.815c0,4.627-1.654,8.552-4.96,11.774
		c-3.321,3.237-7.329,4.856-12.024,4.856c-4.154,0-7.885-1.438-11.191-4.314C238.549,416.711,236.729,412.544,236.729,407.389z
		 M241.626,407.441c0,3.554,1.195,6.476,3.584,8.766c2.376,2.29,5.12,3.436,8.232,3.436c3.376,0,6.224-1.166,8.544-3.498
		c2.32-2.359,3.48-5.233,3.48-8.62c0-3.429-1.146-6.302-3.438-8.62c-2.279-2.332-5.099-3.498-8.461-3.498
		c-3.349,0-6.176,1.166-8.482,3.498C242.78,401.209,241.626,404.055,241.626,407.441z"/>
	<path fill="#F2F2F2" d="M283.289,410.557v13.066h-4.855v-32.177h5.501c2.695,0,4.731,0.188,6.106,0.562
		c1.389,0.375,2.612,1.084,3.668,2.126c1.848,1.807,2.771,4.085,2.771,6.836c0,2.945-0.986,5.279-2.959,7.002
		c-1.973,1.723-4.634,2.584-7.981,2.584H283.289z M283.289,406.055h1.813c4.46,0,6.69-1.715,6.69-5.146
		c0-3.321-2.3-4.981-6.898-4.981h-1.604V406.055z"/>
	<path fill="#F2F2F2" d="M308.301,391.446v27.613h9.462v4.563h-14.317v-32.177H308.301z"/>
	<path fill="#F2F2F2" d="M342.087,396.011h-12.899v7.731h12.524v4.563h-12.524v10.754h12.899v4.563h-17.755v-32.177h17.755V396.011z
		"/>
	<path fill="#F2F2F2" d="M389.339,393.165v5.742c-2.806-2.348-5.71-3.522-8.711-3.522c-3.307,0-6.093,1.188-8.356,3.564
		c-2.279,2.361-3.418,5.251-3.418,8.669c0,3.376,1.139,6.225,3.418,8.544c2.278,2.32,5.07,3.48,8.377,3.48
		c1.709,0,3.161-0.277,4.355-0.834c0.668-0.277,1.358-0.652,2.074-1.125c0.715-0.472,1.469-1.042,2.261-1.709v5.866
		c-2.778,1.577-5.696,2.366-8.753,2.366c-4.598,0-8.523-1.605-11.773-4.814c-3.238-3.237-4.856-7.141-4.856-11.712
		c0-4.099,1.354-7.752,4.063-10.962c3.335-3.932,7.648-5.897,12.941-5.897C383.852,390.821,386.644,391.603,389.339,393.165z"/>
	<path fill="#F2F2F2" d="M417.102,415.809h-13.774l-3.585,7.814h-5.23l15.922-34.198l15.359,34.198h-5.314L417.102,415.809z
		 M415.123,411.244l-4.773-10.94l-5.001,10.94H415.123z"/>
	<path fill="#F2F2F2" d="M431.777,423.623v-34.364l23.466,24.549v-22.361h4.856v34.136l-23.467-24.486v22.527H431.777z"/>
	<path fill="#F2F2F2" d="M489.762,410.557v13.066h-4.855v-32.177h5.502c2.695,0,4.73,0.188,6.105,0.562
		c1.39,0.375,2.612,1.084,3.668,2.126c1.848,1.807,2.771,4.085,2.771,6.836c0,2.945-0.986,5.279-2.959,7.002
		s-4.633,2.584-7.98,2.584H489.762z M489.762,406.055h1.813c4.46,0,6.69-1.715,6.69-5.146c0-3.321-2.301-4.981-6.898-4.981h-1.605
		V406.055z"/>
	<path fill="#F2F2F2" d="M514.774,391.446v27.613h9.462v4.563h-14.317v-32.177H514.774z"/>
	<path fill="#F2F2F2" d="M551.498,415.809h-13.775l-3.584,7.814h-5.23l15.922-34.198l15.358,34.198h-5.314L551.498,415.809z
		 M549.519,411.244l-4.772-10.94l-5.002,10.94H549.519z"/>
	<path fill="#F2F2F2" d="M569.863,409.723l-10.504-18.276h5.585l7.356,12.858l7.377-12.858h5.586l-10.545,18.276v13.9h-4.855
		V409.723z"/>
</g>
</svg>
