<?xml version="1.0" encoding="utf-8"?>
<!-- Generator: Adobe Illustrator 16.0.0, SVG Export Plug-In . SVG Version: 6.00 Build 0)  -->
<!DOCTYPE svg PUBLIC "-//W3C//DTD SVG 1.1//EN" "http://www.w3.org/Graphics/SVG/1.1/DTD/svg11.dtd">
<svg version="1.1" id="Layer_1" xmlns="http://www.w3.org/2000/svg" xmlns:xlink="http://www.w3.org/1999/xlink" x="0px" y="0px"
	 width="612px" height="792px" viewBox="0 0 612 792" enable-background="new 0 0 612 792" xml:space="preserve">
<g>
	<path fill="#333333" d="M20.542,426.175v-43.283h9.083c4.354,0,7.793,0.43,10.316,1.29c2.709,0.841,5.167,2.271,7.373,4.289
		c4.466,4.074,6.7,9.429,6.7,16.062c0,6.653-2.327,12.036-6.98,16.147c-2.336,2.056-4.785,3.485-7.345,4.289
		c-2.393,0.804-5.784,1.205-10.176,1.205H20.542z M27.073,420.035h2.943c2.934,0,5.373-0.308,7.316-0.925
		c1.944-0.653,3.701-1.691,5.271-3.111c3.214-2.934,4.821-6.756,4.821-11.466c0-4.746-1.588-8.596-4.765-11.549
		c-2.859-2.635-7.074-3.953-12.643-3.953h-2.943V420.035z"/>
	<path fill="#333333" d="M88.274,389.031H70.922v10.4H87.77v6.139H70.922v14.465h17.352v6.14H64.391v-43.283h23.884V389.031z"/>
	<path fill="#333333" d="M125.568,415.662h-18.53l-4.821,10.513h-7.037l21.417-46.002l20.661,46.002h-7.148L125.568,415.662z
		 M122.905,409.523l-6.419-14.717l-6.728,14.717H122.905z"/>
	<path fill="#333333" d="M151.491,382.892v37.143h12.727v6.14h-19.259v-43.283H151.491z"/>
	<path fill="#333333" d="M219.296,415.662h-18.53l-4.821,10.513h-7.037l21.417-46.002l20.661,46.002h-7.148L219.296,415.662z
		 M216.633,409.523l-6.419-14.717l-6.728,14.717H216.633z"/>
	<path fill="#333333" d="M238.687,426.175v-46.226l31.565,33.023v-30.08h6.532v45.917l-31.565-32.938v30.304H238.687z"/>
	<path fill="#333333" d="M289.372,426.175v-43.283h9.083c4.354,0,7.793,0.43,10.317,1.29c2.709,0.841,5.166,2.271,7.371,4.289
		c4.467,4.074,6.701,9.429,6.701,16.062c0,6.653-2.328,12.036-6.98,16.147c-2.336,2.056-4.785,3.485-7.346,4.289
		c-2.392,0.804-5.783,1.205-10.175,1.205H289.372z M295.904,420.035h2.943c2.934,0,5.373-0.308,7.316-0.925
		c1.944-0.653,3.7-1.691,5.27-3.111c3.215-2.934,4.822-6.756,4.822-11.466c0-4.746-1.59-8.596-4.766-11.549
		c-2.859-2.635-7.074-3.953-12.643-3.953h-2.943V420.035z"/>
	<path fill="#333333" d="M361.046,382.892v37.143h12.727v6.14h-19.258v-43.283H361.046z"/>
	<path fill="#333333" d="M409.953,415.662h-18.53l-4.821,10.513h-7.036l21.417-46.002l20.66,46.002h-7.148L409.953,415.662z
		 M407.29,409.523l-6.42-14.717l-6.728,14.717H407.29z"/>
	<path fill="#333333" d="M433.399,407.477l-14.129-24.584h7.513l9.896,17.296l9.924-17.296h7.513l-14.185,24.584v18.698h-6.531
		V407.477z"/>
	<path fill="#333333" d="M456.172,404.337c0-6.092,2.233-11.325,6.7-15.698c4.447-4.373,9.793-6.56,16.034-6.56
		c6.168,0,11.456,2.206,15.867,6.616c4.429,4.411,6.644,9.709,6.644,15.895c0,6.223-2.225,11.503-6.672,15.838
		c-4.467,4.355-9.858,6.532-16.175,6.532c-5.588,0-10.606-1.935-15.054-5.803C458.62,416.878,456.172,411.271,456.172,404.337z
		 M462.76,404.407c0,4.78,1.607,8.711,4.821,11.792c3.196,3.081,6.887,4.621,11.073,4.621c4.541,0,8.372-1.568,11.493-4.705
		c3.121-3.174,4.682-7.04,4.682-11.596c0-4.612-1.542-8.477-4.625-11.596c-3.065-3.137-6.859-4.706-11.382-4.706
		c-4.504,0-8.307,1.569-11.409,4.706C464.311,396.024,462.76,399.852,462.76,404.407z"/>
	<path fill="#333333" d="M518.051,382.892v26.051c0,3.717,0.607,6.434,1.822,8.151c1.812,2.484,4.363,3.726,7.652,3.726
		c3.309,0,5.868-1.241,7.682-3.726c1.215-1.662,1.822-4.379,1.822-8.151v-26.051h6.531v27.865c0,4.561-1.421,8.316-4.261,11.27
		c-3.196,3.289-7.12,4.934-11.774,4.934c-4.653,0-8.568-1.645-11.745-4.934c-2.841-2.953-4.261-6.709-4.261-11.27v-27.865H518.051z"
		/>
	<path fill="#333333" d="M567.953,389.031v37.144h-6.531v-37.144h-9.952v-6.139h26.407v6.139H567.953z"/>
</g>
</svg>
