<?xml version="1.0" encoding="utf-8"?>
<!-- Generator: Adobe Illustrator 16.0.0, SVG Export Plug-In . SVG Version: 6.00 Build 0)  -->
<!DOCTYPE svg PUBLIC "-//W3C//DTD SVG 1.1//EN" "http://www.w3.org/Graphics/SVG/1.1/DTD/svg11.dtd">
<svg version="1.1" id="Layer_1" xmlns="http://www.w3.org/2000/svg" xmlns:xlink="http://www.w3.org/1999/xlink" x="0px" y="0px"
	 width="962px" height="1040px" viewBox="0 0 962 1040" enable-background="new 0 0 962 1040" xml:space="preserve">
<g>
	<path fill="#FFFFFF" d="M62.26,816.781h-6.465L35.28,788.924h-3.193v27.857h-5.308v-58.429h10.736
		c6.332,0,11.075,1.316,14.229,3.951c3.153,2.634,4.729,6.625,4.729,11.973c0,4.55-1.351,8.129-4.051,10.736
		c-2.701,2.607-6.419,3.911-11.155,3.911L62.26,816.781z M32.087,762.981v21.592h5.348c4.949,0,8.401-0.791,10.357-2.375
		c1.956-1.582,2.933-4.276,2.933-8.081c0-4.018-1.011-6.878-3.033-8.581c-2.022-1.702-5.441-2.555-10.257-2.555H32.087z"/>
	<path fill="#FFFFFF" d="M101.404,758.353h5.228v38.154c0,5.773,1.317,10.064,3.951,12.871c2.634,2.808,6.665,4.211,12.093,4.211
		c5.348,0,9.339-1.403,11.974-4.211c2.634-2.807,3.951-7.098,3.951-12.871v-38.154h5.308v36.438c0,7.902-1.756,13.804-5.269,17.701
		s-8.834,5.847-15.964,5.847c-7.158,0-12.492-1.949-16.004-5.847s-5.268-9.799-5.268-17.701V758.353z"/>
	<path fill="#FFFFFF" d="M189.918,816.781v-58.429h5.308v53.439h20.035v4.989H189.918z"/>
	<path fill="#FFFFFF" d="M255.403,816.781v-58.429h28.935v4.988h-23.627v18.279h23.627v4.988h-23.627v25.184h23.627v4.989H255.403z"
		/>
	<path fill="#FFFFFF" d="M324.601,806.963l4.55-2.435c0.851,2.874,2.321,5.103,4.41,6.686c2.088,1.583,4.596,2.375,7.523,2.375
		c3.698,0,6.585-1.091,8.661-3.273c2.075-2.181,3.113-5.201,3.113-9.06c0-2.819-0.698-5.161-2.095-7.024
		c-1.397-1.861-4.397-4.017-9-6.465c-5.88-3.113-9.792-5.854-11.733-8.222c-1.942-2.368-2.914-5.215-2.914-8.541
		c0-4.15,1.403-7.529,4.21-10.138c2.807-2.607,6.446-3.911,10.916-3.911c2.927,0,5.474,0.619,7.643,1.856
		c2.168,1.236,3.931,3.093,5.288,5.567l-4.111,2.475c-0.852-1.677-2.055-2.954-3.612-3.832s-3.399-1.316-5.528-1.316
		c-2.874,0-5.162,0.845-6.864,2.534c-1.703,1.689-2.555,3.971-2.555,6.845c0,4.098,3.379,7.916,10.138,11.454
		c1.223,0.639,2.155,1.131,2.793,1.477c4.975,2.741,8.302,5.328,9.978,7.763c1.676,2.435,2.515,5.595,2.515,9.479
		c0,5.242-1.53,9.399-4.59,12.473c-3.06,3.072-7.224,4.609-12.492,4.609c-3.832,0-7.111-0.952-9.838-2.854
		C328.278,813.582,326.143,810.741,324.601,806.963z"/>
	<path fill="#FFFFFF" d="M488.92,787.687c0,4.124-0.786,8.042-2.356,11.754c-1.571,3.711-3.834,7.018-6.789,9.917
		c-3.009,2.928-6.403,5.156-10.184,6.686c-3.781,1.529-7.774,2.295-11.981,2.295c-4.206,0-8.193-0.766-11.961-2.295
		c-3.767-1.529-7.141-3.758-10.123-6.686c-2.982-2.953-5.251-6.271-6.81-9.957c-1.558-3.686-2.336-7.59-2.336-11.714
		c0-4.177,0.778-8.122,2.336-11.834c1.558-3.711,3.827-7.044,6.81-9.997c2.928-2.9,6.27-5.095,10.023-6.585
		s7.774-2.235,12.061-2.235c4.313,0,8.354,0.752,12.121,2.255c3.768,1.504,7.115,3.691,10.044,6.565
		c2.981,2.953,5.251,6.286,6.809,9.997C488.141,779.564,488.92,783.51,488.92,787.687z M457.609,813.589
		c3.462,0,6.737-0.639,9.826-1.916s5.871-3.14,8.349-5.588c2.422-2.475,4.279-5.288,5.571-8.44c1.291-3.153,1.938-6.473,1.938-9.958
		c0-3.513-0.64-6.831-1.918-9.958c-1.278-3.126-3.142-5.939-5.591-8.44c-2.424-2.448-5.187-4.311-8.289-5.588
		s-6.397-1.916-9.886-1.916c-3.461,0-6.724,0.639-9.785,1.916c-3.062,1.277-5.832,3.14-8.308,5.588
		c-2.449,2.527-4.313,5.342-5.592,8.44c-1.278,3.101-1.917,6.42-1.917,9.958c0,3.512,0.639,6.831,1.917,9.958
		c1.278,3.126,3.143,5.94,5.592,8.44c2.45,2.475,5.193,4.345,8.228,5.607C450.779,812.957,454.068,813.589,457.609,813.589z"/>
	<path fill="#FFFFFF" d="M532.375,816.781v-58.429h28.936v4.988h-23.627v18.279h22.749v4.988h-22.749v30.173H532.375z"/>
	<path fill="#FFFFFF" d="M680.57,773.039c-2.368-3.672-5.281-6.451-8.74-8.341s-7.357-2.834-11.693-2.834
		c-7.238,0-13.131,2.448-17.681,7.344s-6.825,11.241-6.825,19.037c0,3.486,0.605,6.771,1.816,9.858
		c1.21,3.086,2.974,5.826,5.288,8.221c2.341,2.369,4.962,4.145,7.862,5.328c2.899,1.185,6.079,1.776,9.539,1.776
		c6.545,0,11.873-1.929,15.983-5.787c4.111-3.857,6.22-8.9,6.326-15.126h-20.155v-4.59h25.982v0.639
		c0,9.312-2.541,16.603-7.623,21.871s-12.08,7.902-20.993,7.902c-8.86,0-16.031-2.82-21.512-8.461
		c-5.481-5.641-8.222-13.037-8.222-22.19c0-4.204,0.691-8.175,2.075-11.913s3.379-6.991,5.987-9.759
		c2.819-3.006,6.006-5.254,9.559-6.744c3.552-1.49,7.509-2.235,11.873-2.235c5.933,0,11.016,1.071,15.246,3.213
		s7.489,5.288,9.777,9.438L680.57,773.039z"/>
	<path fill="#FFFFFF" d="M723.188,816.781l25.663-60.744l24.585,60.744h-5.787l-7.464-19.796h-23.866l-7.742,19.796H723.188z
		 M738.114,792.436h20.354l-9.978-25.423L738.114,792.436z"/>
	<path fill="#FFFFFF" d="M838.361,819.057l-20.514-46.896l-4.431,44.62h-5.468l7.942-60.903l22.39,52.003l23.229-52.003
		l7.503,60.903h-5.468l-4.35-44.62L838.361,819.057z"/>
	<path fill="#FFFFFF" d="M911.749,816.781v-58.429h28.936v4.988h-23.627v18.279h23.627v4.988h-23.627v25.184h23.627v4.989H911.749z"
		/>
	<path fill="#FFFFFF" d="M265.48,889.135h25.463v2.035c0,4.63-0.546,8.728-1.637,12.293c-1.064,3.299-2.86,6.385-5.388,9.259
		c-5.721,6.439-12.998,9.658-21.831,9.658c-8.621,0-16.004-3.113-22.15-9.339c-6.146-6.252-9.219-13.756-9.219-22.51
		c0-8.939,3.126-16.522,9.379-22.749c6.252-6.252,13.862-9.379,22.829-9.379c4.815,0,9.312,0.98,13.49,2.939
		c3.991,1.961,7.916,5.145,11.774,9.553l-6.625,6.346c-5.055-6.731-11.215-10.098-18.479-10.098c-6.519,0-11.987,2.249-16.403,6.745
		c-4.417,4.417-6.625,9.951-6.625,16.603c0,6.865,2.461,12.52,7.383,16.962c4.603,4.125,9.592,6.187,14.967,6.187
		c4.576,0,8.687-1.539,12.332-4.618c3.645-3.104,5.681-6.82,6.106-11.146H265.48V889.135z"/>
	<path fill="#FFFFFF" d="M332.962,890.132c0-8.673,3.179-16.123,9.539-22.35c6.332-6.226,13.942-9.339,22.829-9.339
		c8.78,0,16.31,3.14,22.589,9.419c6.306,6.279,9.459,13.822,9.459,22.629c0,8.86-3.167,16.377-9.499,22.55
		c-6.36,6.2-14.036,9.299-23.029,9.299c-7.956,0-15.1-2.754-21.432-8.261C336.447,907.986,332.962,900.004,332.962,890.132z
		 M342.341,890.232c0,6.806,2.288,12.401,6.865,16.788c4.55,4.386,9.804,6.579,15.765,6.579c6.465,0,11.919-2.233,16.363-6.699
		c4.443-4.519,6.665-10.021,6.665-16.509c0-6.565-2.195-12.068-6.585-16.509c-4.364-4.466-9.765-6.699-16.204-6.699
		c-6.413,0-11.827,2.233-16.244,6.699C344.549,878.296,342.341,883.746,342.341,890.232z"/>
	<path fill="#FFFFFF" d="M477.311,868.74l-7.543,4.47c-1.411-2.447-2.754-4.044-4.031-4.789c-1.331-0.852-3.047-1.277-5.148-1.277
		c-2.581,0-4.723,0.733-6.426,2.197c-1.703,1.438-2.555,3.248-2.555,5.432c0,3.009,2.235,5.432,6.705,7.269l6.146,2.517
		c5.002,2.023,8.661,4.493,10.976,7.409c2.314,2.915,3.473,6.49,3.473,10.723c0,5.672-1.89,10.358-5.668,14.06
		c-3.805,3.728-8.527,5.591-14.168,5.591c-5.349,0-9.765-1.59-13.251-4.771c-3.432-3.179-5.574-7.642-6.425-13.389l9.419-2.075
		c0.426,3.619,1.17,6.12,2.234,7.503c1.916,2.661,4.71,3.991,8.382,3.991c2.899,0,5.308-0.97,7.224-2.911
		c1.916-1.94,2.873-4.399,2.873-7.378c0-1.196-0.166-2.293-0.498-3.29c-0.333-0.997-0.853-1.915-1.557-2.752
		c-0.705-0.838-1.616-1.622-2.734-2.354c-1.117-0.73-2.448-1.429-3.991-2.094l-5.946-2.473c-8.436-3.562-12.652-8.774-12.652-15.634
		c0-4.626,1.77-8.494,5.308-11.605c3.539-3.137,7.942-4.706,13.211-4.706C467.771,858.403,473.319,861.85,477.311,868.74z"/>
	<path fill="#FFFFFF" d="M540.521,868.341v52.882h-9.3v-52.882h-14.168v-8.74h37.596v8.74H540.521z"/>
	<path fill="#FFFFFF" d="M593.274,890.132c0-8.673,3.179-16.123,9.538-22.35c6.332-6.226,13.942-9.339,22.829-9.339
		c8.78,0,16.31,3.14,22.59,9.419c6.306,6.279,9.459,13.822,9.459,22.629c0,8.86-3.167,16.377-9.499,22.55
		c-6.359,6.2-14.035,9.299-23.028,9.299c-7.956,0-15.101-2.754-21.433-8.261C596.76,907.986,593.274,900.004,593.274,890.132z
		 M602.653,890.232c0,6.806,2.288,12.401,6.864,16.788c4.55,4.386,9.805,6.579,15.765,6.579c6.466,0,11.92-2.233,16.363-6.699
		c4.443-4.519,6.665-10.021,6.665-16.509c0-6.565-2.194-12.068-6.585-16.509c-4.364-4.466-9.765-6.699-16.203-6.699
		c-6.413,0-11.828,2.233-16.244,6.699C604.861,878.296,602.653,883.746,602.653,890.232z"/>
	<path fill="#FFFFFF" d="M712.08,896.198v25.024h-9.299v-61.622h10.536c5.161,0,9.06,0.359,11.693,1.078
		c2.661,0.718,5.002,2.075,7.024,4.07c3.538,3.459,5.309,7.822,5.309,13.091c0,5.641-1.89,10.111-5.668,13.41
		s-8.873,4.948-15.285,4.948H712.08z M712.08,887.578h3.473c8.54,0,12.811-3.286,12.811-9.858c0-6.358-4.403-9.538-13.21-9.538
		h-3.073V887.578z"/>
</g>
<g>
	<g>
		<polygon fill="#FFFFFF" points="433.372,433.286 569.733,349.011 516.232,340.438 646.774,251.31 480.052,344.007 
			540.198,353.819 397.155,436.854 459.1,446.581 356.339,530.52 486.415,441.371 		"/>
	</g>
</g>
<g>
	<g>
		<path fill="#FFFFFF" d="M487.492,685.409c-161.375,0-292.656-131.306-292.656-292.645c0-161.352,131.282-292.656,292.656-292.656
			c161.361,0,292.654,131.305,292.654,292.656C780.146,554.104,648.854,685.409,487.492,685.409z M487.492,113.152
			c-154.16,0-279.602,125.431-279.602,279.613c0,154.192,125.442,279.59,279.602,279.59c154.181,0,279.611-125.397,279.611-279.59
			C767.104,238.583,641.673,113.152,487.492,113.152z"/>
	</g>
	<g>
		<path fill="#FFFFFF" d="M487.492,663.673c-149.363,0-270.899-121.535-270.899-270.908c0-149.385,121.536-270.899,270.899-270.899
			c149.372,0,270.909,121.515,270.909,270.899C758.401,542.138,636.864,663.673,487.492,663.673z M487.492,128.404
			c-145.773,0-264.382,118.588-264.382,264.361c0,145.794,118.609,264.371,264.382,264.371
			c145.772,0,264.393-118.577,264.393-264.371C751.885,246.992,633.265,128.404,487.492,128.404z"/>
	</g>
</g>
<g>
	<g>
		<path fill="#FFFFFF" d="M720.205,165.435c-9.877,0-17.95-8.04-17.95-17.917c0-9.921,8.073-17.949,17.95-17.949
			c9.921,0,17.961,8.028,17.961,17.949C738.166,157.395,730.126,165.435,720.205,165.435z M720.205,131.526
			c-8.812,0-15.979,7.136-15.979,15.991c0,8.791,7.168,15.981,15.979,15.981c8.846,0,15.993-7.191,15.993-15.981
			C736.198,138.662,729.051,131.526,720.205,131.526z"/>
	</g>
	<g>
		<path fill="#FFFFFF" d="M725.852,138.543c0.686,0.163,1.37,0.336,2.035,0.425c0.185,0,0.393,0.347,0.393,0.76
			c0.042,0.784,0.096,1.784,0.14,2.6c0.045,0.588-0.14,1.056-0.468,1.056c-0.142,0-0.392-0.337-0.521-0.74
			c-0.296-0.881-0.73-1.675-1.198-2.001c-1.218-1.044-2.644-1.654-4.188-1.654c-4.449,0-6.583,3.568-6.583,7.844
			c0,1.882,0.348,3.502,0.979,4.743c1.546,3.122,4.113,4.199,6.311,4.199c0.359,0,1.751-0.033,2.707-0.62
			c1.078-0.609,1.808-1.414,2.461-2.589c0.359-0.599,0.544-0.859,0.771-0.859c0.293,0,0.293,0.717,0.24,1.032
			c-0.153,0.73-0.61,1.959-0.86,2.448c-0.076,0.261-0.577,0.708-1.001,0.893c-0.413,0.152-2.34,0.838-4.938,0.838
			c-4.178,0-7.147-1.851-8.289-3.177c-1.066-1.262-2.352-3.231-2.352-6.354c0-3.416,1.914-5.809,3.102-6.744
			c2.359-1.98,5.277-2.557,7.603-2.557C723.479,138.086,724.828,138.282,725.852,138.543z"/>
	</g>
</g>
<path fill="#FFFFFF" d="M377.323,312.557h34.705v2.774c0,6.319-0.741,11.9-2.231,16.763c-1.447,4.494-3.905,8.704-7.343,12.619
	c-7.8,8.769-17.723,13.163-29.765,13.163c-11.747,0-21.811-4.241-30.186-12.729c-8.389-8.517-12.577-18.753-12.577-30.688
	c0-12.184,4.265-22.518,12.793-31.004c8.518-8.529,18.895-12.793,31.113-12.793c6.571,0,12.696,1.339,18.396,4.015
	c5.438,2.665,10.78,7.005,16.046,13.021l-9.029,8.639c-6.896-9.172-15.285-13.762-25.185-13.762c-8.887,0-16.35,3.067-22.365,9.192
	c-6.018,6.026-9.031,13.564-9.031,22.639c0,9.355,3.362,17.067,10.063,23.116c6.277,5.636,13.076,8.442,20.399,8.442
	c6.243,0,11.845-2.1,16.818-6.299c4.959-4.243,7.732-9.3,8.32-15.197h-20.941V312.557z"/>
<path fill="#FFFFFF" d="M620.427,460.451l-10.279,6.092c-1.916-3.328-3.766-5.516-5.493-6.528c-1.808-1.163-4.156-1.751-7.027-1.751
	c-3.515,0-6.43,1.002-8.757,3.004c-2.319,1.957-3.482,4.416-3.482,7.407c0,4.09,3.046,7.398,9.148,9.899l8.378,3.427
	c6.82,2.763,11.804,6.125,14.958,10.096c3.153,3.981,4.732,8.854,4.732,14.631c0,7.724-2.57,14.111-7.724,19.168
	c-5.178,5.07-11.62,7.604-19.312,7.604c-7.289,0-13.315-2.164-18.068-6.494c-4.678-4.33-7.603-10.411-8.757-18.243l12.838-2.828
	c0.587,4.929,1.599,8.331,3.055,10.225c2.603,3.622,6.419,5.438,11.412,5.438c3.961,0,7.247-1.326,9.856-3.97
	c2.61-2.643,3.918-5.994,3.918-10.062c0-1.631-0.23-3.122-0.677-4.472c-0.455-1.369-1.164-2.621-2.132-3.763
	c-0.967-1.132-2.197-2.208-3.719-3.211c-1.534-0.989-3.342-1.945-5.452-2.849l-8.103-3.384c-11.501-4.841-17.243-11.943-17.243-21.3
	c0-6.299,2.414-11.587,7.243-15.817c4.821-4.276,10.813-6.418,17.994-6.418C607.429,446.353,614.987,451.052,620.427,460.451z"/>
</svg>
