<?xml version="1.0" encoding="utf-8"?>
<!-- Generator: Adobe Illustrator 16.0.0, SVG Export Plug-In . SVG Version: 6.00 Build 0)  -->
<!DOCTYPE svg PUBLIC "-//W3C//DTD SVG 1.1//EN" "http://www.w3.org/Graphics/SVG/1.1/DTD/svg11.dtd">
<svg version="1.1" id="Layer_1" xmlns="http://www.w3.org/2000/svg" xmlns:xlink="http://www.w3.org/1999/xlink" x="0px" y="0px"
	 width="1699.416px" height="994.45px" viewBox="0 0 1699.416 994.45" enable-background="new 0 0 1699.416 994.45"
	 xml:space="preserve">
<g>
	<defs>
		<rect id="SVGID_1_" x="13.876" y="12.387" width="1672" height="974"/>
	</defs>
	<clipPath id="SVGID_2_">
		<use xlink:href="#SVGID_1_"  overflow="visible"/>
	</clipPath>
	<g clip-path="url(#SVGID_2_)">
		<polygon fill="#F7A56D" points="213.534,792.89 96.47,1025.872 496.955,1025.872 614.011,792.89 		"/>
	</g>
	<path clip-path="url(#SVGID_2_)" fill="#F7A56D" d="M742.227,195.191c11.428,19.711,5.597,45.519-13.055,57.601l-43.209,30.111
		C667.32,295,642.936,288.811,631.496,269.1l-4.474-7.716c-11.424-19.706-5.571-45.508,13.054-57.59l43.225-30.125
		c18.635-12.077,43.019-5.892,54.459,13.808L742.227,195.191z"/>
	<polygon clip-path="url(#SVGID_2_)" fill="#F7A56D" points="667.408,774.818 774.941,540.025 659.401,563.219 	"/>
	<path clip-path="url(#SVGID_2_)" fill="#F7A56D" d="M206.729,600.229v129.062c0,63.679-11.982,115.32,48.255,115.32H550.25
		c60.243,0,135.813-51.642,135.813-115.32V600.229H206.729z"/>
	<path clip-path="url(#SVGID_2_)" fill="#F7A56D" d="M320.381,776.721V476.609l-147.434,77.788l28.371,295.101l118.961-70.525
		C320.29,778.221,320.381,777.487,320.381,776.721z"/>
	<path clip-path="url(#SVGID_2_)" fill="#F7A56D" d="M328.103,313.738c0-26.232-20.104-47.493-44.882-47.493h-3.083
		c-24.796,0-44.902,21.26-44.902,47.493v175.244h92.867V313.738z"/>
	<path clip-path="url(#SVGID_2_)" fill="#F7A56D" d="M282.042,597.251c-10.557,29.086-41.453,43.616-68.95,32.437l-3.402-1.371
		c-27.52-11.181-43.595-63.479-33.02-92.575l61.981-152.135c10.58-29.1,41.45-43.619,68.96-32.439l3.402,1.377
		c27.515,11.188,41.262,43.829,30.683,72.92L282.042,597.251z"/>
	<g clip-path="url(#SVGID_2_)">
		<path fill="#C1713A" d="M280.854,559.152c21.048,14.714,37.312,57.484,41.577,110.881V448.267
			C318.167,501.669,301.903,544.465,280.854,559.152z"/>
	</g>
	<g clip-path="url(#SVGID_2_)">
		<path fill="#FCC8A4" d="M243.725,286.022c-5.312,7.806-8.489,17.36-8.489,27.716v31.861h40.199
			C275.435,345.599,273.573,293.937,243.725,286.022z"/>
	</g>
	<rect x="308.704" y="54.895" clip-path="url(#SVGID_2_)" fill="#FFFFFF" width="408.368" height="636.6"/>
	<g clip-path="url(#SVGID_2_)">
		<defs>
			<rect id="SVGID_3_" x="308.704" y="54.895" width="408.368" height="636.6"/>
		</defs>
		<clipPath id="SVGID_4_">
			<use xlink:href="#SVGID_3_"  overflow="visible"/>
		</clipPath>
		<rect x="304.125" y="54.895" clip-path="url(#SVGID_4_)" fill="none" width="412.947" height="636.6"/>
		<path clip-path="url(#SVGID_4_)" fill="#0D181C" d="M621.246,24.693c0,0,76.8,318.429,180.514,475.985
			c0.635,0.975,1.279,1.926,1.915,2.883c0,0-99.508-178.274-73.594-266.374l17.623-207.31L621.246,24.693z"/>
		<path clip-path="url(#SVGID_4_)" fill="#0D181C" d="M697.827,39.277H401.338c5.365,20.586,11.085,41.109,14.944,62.003
			c3.471,4.584,7.417,9.021,11.816,13.658c1.088,1.15,2.204,2.325,3.325,3.519c0-1.226-0.009-2.458-0.035-3.671
			c0,0,54.209,5.524,100.704-44.2c0,0,0.928,79.506,77.345,152.545c0,0,76.425,61.993,15.653,242.456
			C625.09,465.586,809.24,194.888,697.827,39.277z"/>
		
			<line clip-path="url(#SVGID_4_)" fill="none" stroke="#0D181C" stroke-miterlimit="10" x1="439.678" y1="167.265" x2="543.735" y2="55.391"/>
		
			<line clip-path="url(#SVGID_4_)" fill="none" stroke="#0D181C" stroke-miterlimit="10" x1="488.822" y1="147.922" x2="540.442" y2="94.06"/>
		
			<line clip-path="url(#SVGID_4_)" fill="none" stroke="#0D181C" stroke-miterlimit="10" x1="491.64" y1="174.633" x2="549.131" y2="121"/>
		
			<line clip-path="url(#SVGID_4_)" fill="none" stroke="#0D181C" stroke-miterlimit="10" x1="499.411" y1="201.332" x2="558.325" y2="142.4"/>
		
			<line clip-path="url(#SVGID_4_)" fill="none" stroke="#0D181C" stroke-miterlimit="10" x1="509.081" y1="223.13" x2="572.726" y2="160.819"/>
		
			<line clip-path="url(#SVGID_4_)" fill="none" stroke="#0D181C" stroke-miterlimit="10" x1="509.081" y1="254.965" x2="585.842" y2="179.697"/>
		
			<line clip-path="url(#SVGID_4_)" fill="none" stroke="#0D181C" stroke-miterlimit="10" x1="512.554" y1="284.141" x2="602.534" y2="194.425"/>
		<path clip-path="url(#SVGID_4_)" fill="none" stroke="#8C8D8C" stroke-miterlimit="10" d="M559.932,266.512"/>
		
			<line clip-path="url(#SVGID_4_)" fill="none" stroke="#0D181C" stroke-miterlimit="10" x1="615.43" y1="217.328" x2="567.546" y2="265.321"/>
		<path clip-path="url(#SVGID_4_)" fill="#8E8E8C" d="M308.296,367.711c0,0,89.718,3.535,158.953-41.672l36.797,12.709v5.65
			C504.047,344.398,468.664,490.636,308.296,367.711z"/>
		<path clip-path="url(#SVGID_4_)" fill="#6B61A0" d="M490.362,323.915c0,0,138.469-83.365,145.533-96.789
			c7.061-13.423,12.007,67.822-21.198,100.322c0,0-57.22,65.699-132.812,0L490.362,323.915z"/>
		
			<line clip-path="url(#SVGID_4_)" fill="none" stroke="#4C3F75" stroke-miterlimit="10" x1="585.028" y1="303.424" x2="594.212" y2="312.61"/>
		
			<line clip-path="url(#SVGID_4_)" fill="none" stroke="#4C3F75" stroke-miterlimit="10" x1="570.897" y1="308.017" x2="581.492" y2="321.089"/>
		
			<line clip-path="url(#SVGID_4_)" fill="none" stroke="#4C3F75" stroke-miterlimit="10" x1="554.649" y1="314.55" x2="561.469" y2="328.856"/>
		
			<line clip-path="url(#SVGID_4_)" fill="none" stroke="#4C3F75" stroke-miterlimit="10" x1="539.811" y1="321.708" x2="546.537" y2="328.856"/>
		<path clip-path="url(#SVGID_4_)" fill="#1D1D1B" d="M493.242,330.661c0,0,38.802,18.455,57.165,25.991
			c18.369,7.528,69.235,101.493,67.826,203.215c0,0-38.857-75.583-77.007-92.542c0,0,0.708,67.119-23.311,101.025
			c0,0-18.786-112.691-43.093-136.348c0,0,16.244-69.869,3.527-101.341H493.242z"/>
		
			<line clip-path="url(#SVGID_4_)" fill="none" stroke="#1D1D1B" stroke-miterlimit="10" x1="431.606" y1="371.465" x2="440.084" y2="382.768"/>
		
			<line clip-path="url(#SVGID_4_)" fill="none" stroke="#1D1D1B" stroke-miterlimit="10" x1="416.06" y1="379.021" x2="426.66" y2="386.082"/>
		
			<line clip-path="url(#SVGID_4_)" fill="none" stroke="#1D1D1B" stroke-miterlimit="10" x1="400.52" y1="379.021" x2="406.169" y2="386.082"/>
		
			<line clip-path="url(#SVGID_4_)" fill="none" stroke="#1D1D1B" stroke-miterlimit="10" x1="382.86" y1="382.546" x2="392.042" y2="392.438"/>
		<polygon clip-path="url(#SVGID_4_)" fill="#5A1C4E" points="493.242,254.058 514.848,247.617 504.047,268.807 		"/>
		<path clip-path="url(#SVGID_4_)" fill="#B65A99" d="M514.848,292.362c0,24.707-20.03,44.739-44.742,44.739
			c-24.711,0-44.742-20.032-44.742-44.739c0-24.716,20.031-44.746,44.742-44.746C494.818,247.617,514.848,267.646,514.848,292.362z"
			/>
		<path clip-path="url(#SVGID_4_)" fill="#EE7CA2" d="M474.821,290.001c0,5.07-4.116,9.186-9.185,9.186
			c-5.074,0-9.187-4.116-9.187-9.186c0-5.072,4.113-9.183,9.187-9.183C470.705,280.819,474.821,284.929,474.821,290.001z"/>
		<path clip-path="url(#SVGID_4_)" fill="#5A1C4E" d="M481.884,268.807c0,1.952-1.583,3.538-3.535,3.538
			c-1.951,0-3.527-1.586-3.527-3.538c0-1.949,1.576-3.531,3.527-3.531C480.301,265.276,481.884,266.858,481.884,268.807z"/>
		<path clip-path="url(#SVGID_4_)" fill="none" stroke="#8E8E8C" stroke-miterlimit="10" d="M565.717,272.345"/>
		<path clip-path="url(#SVGID_4_)" fill="#0D181C" d="M291.108,24.693h148.57v84.219c0,0-15.251,72.681-39.158,116.731
			c0,0-86.471,159.364-55.19,268.544c0,0,47.951,149.391,37.531,215.832c0,0-27.103-227.604-91.752-269.316V24.693z"/>
		
			<line clip-path="url(#SVGID_4_)" fill="none" stroke="#0D181C" stroke-miterlimit="10" x1="244.804" y1="630.878" x2="348.857" y2="519.006"/>
		
			<line clip-path="url(#SVGID_4_)" fill="none" stroke="#0D181C" stroke-miterlimit="10" x1="305.933" y1="607.367" x2="357.558" y2="553.502"/>
		
			<line clip-path="url(#SVGID_4_)" fill="none" stroke="#0D181C" stroke-miterlimit="10" x1="305.933" y1="638.246" x2="363.427" y2="584.609"/>
		
			<line clip-path="url(#SVGID_4_)" fill="none" stroke="#0D181C" stroke-miterlimit="10" x1="308.704" y1="664.944" x2="367.619" y2="606.013"/>
		
			<line clip-path="url(#SVGID_4_)" fill="none" stroke="#0D181C" stroke-miterlimit="10" x1="312.875" y1="690.235" x2="371.789" y2="631.303"/>
	</g>
	<g clip-path="url(#SVGID_2_)">
		<path fill="#F7A56D" d="M773.015,501.538c11.439,19.73,5.584,45.505-13.049,57.606l-82.104,53.246
			c-18.642,12.087-43.045,5.917-54.463-13.804l-4.477-7.709c-11.443-19.722-5.576-45.509,13.043-57.602l82.117-53.251
			c18.647-12.084,43.022-5.906,54.461,13.795L773.015,501.538z"/>
		<path fill="#F7A56D" d="M755.247,396.262c11.425,19.714,5.573,45.503-13.067,57.604l-61.687,41.265
			c-18.645,12.106-43.024,5.908-54.458-13.809l-4.473-7.702c-11.427-19.71-5.599-45.5,13.062-57.582l61.687-41.292
			c18.649-12.082,43.023-5.917,54.465,13.806L755.247,396.262z"/>
		<path fill="#F7A56D" d="M738.081,301.342c11.431,19.711,5.588,45.503-13.049,57.604l-43.22,30.109
			c-18.636,12.096-43.019,5.906-54.461-13.804l-4.454-7.711c-11.459-19.719-5.619-45.5,13.033-57.596l43.218-30.118
			c18.64-12.084,43.029-5.912,54.469,13.808L738.081,301.342z"/>
		<g>
			<path fill="#FCC8A4" d="M645.923,538.971l-7.731,5.018c-6.315,4.093-10.732,10.543-12.468,18.149
				c-1.719,7.625-0.54,15.5,3.332,22.163l4.474,7.717c5.093,8.765,13.933,13.993,23.651,13.993c5.101,0,10.096-1.497,14.478-4.337
				l10.88-7.066C679.275,560.205,657.095,544.675,645.923,538.971z"/>
		</g>
		<g>
			<path fill="#FCC8A4" d="M648.986,421.432l-7.746,5.018c-6.313,4.09-10.74,10.529-12.466,18.155
				c-1.724,7.609-0.533,15.48,3.333,22.157l4.474,7.717c5.084,8.758,13.934,13.993,23.669,13.993c5.092,0,10.079-1.507,14.454-4.339
				l10.881-7.062C682.328,442.669,660.142,427.126,648.986,421.432z"/>
		</g>
		<g>
			<path fill="#FCC8A4" d="M648.986,315.529l-7.746,5c-6.313,4.097-10.74,10.549-12.466,18.155
				c-1.724,7.615-0.533,15.465,3.333,22.164l4.474,7.708c5.084,8.77,13.934,14.015,23.669,14.015c5.092,0,10.079-1.518,14.454-4.351
				l10.881-7.066C682.328,336.748,660.142,321.211,648.986,315.529z"/>
		</g>
	</g>
	<path clip-path="url(#SVGID_2_)" fill="#F7A56D" d="M974.232,235.453c-11.649,19.003-5.693,43.854,13.301,55.508l90.343,58.075
		c18.994,11.651,43.846,5.689,55.499-13.301l4.558-7.434c11.666-19,5.702-43.852-13.301-55.509l-90.339-58.078
		c-18.998-11.649-43.854-5.681-55.498,13.306L974.232,235.453z"/>
	<path clip-path="url(#SVGID_2_)" fill="#F7A56D" d="M970.196,382.765c-11.66,19-5.694,43.851,13.309,55.5l90.329,58.073
		c19.002,11.657,43.846,5.689,55.508-13.304l4.558-7.435c11.657-19,5.696-43.854-13.306-55.504l-90.336-58.072
		c-19.003-11.646-43.848-5.69-55.502,13.31L970.196,382.765z"/>
	<path clip-path="url(#SVGID_2_)" fill="#F7A56D" d="M984.322,481.645c-11.66,18.991-5.701,43.843,13.307,55.499l90.331,58.079
		c19,11.644,43.852,5.681,55.501-13.317l4.567-7.433c11.651-18.994,5.691-43.831-13.304-55.5l-90.343-58.072
		c-18.991-11.646-43.848-5.696-55.494,13.304L984.322,481.645z"/>
	<path clip-path="url(#SVGID_2_)" fill="#F7A56D" d="M986.368,585.868c-9.092,14.827-4.441,34.216,10.395,43.314l70.492,45.312
		c14.835,9.106,34.227,4.451,43.313-10.369l3.565-5.814c9.099-14.821,4.448-34.225-10.384-43.307l-70.498-45.323
		c-14.828-9.1-34.229-4.455-43.315,10.388L986.368,585.868z"/>
	<path clip-path="url(#SVGID_2_)" fill="#F7A56D" d="M1368.654,260.279l148.586,180.166c7.105,8.596,13.254,24.598,13.758,35.731
		l15.23,334.992l138.222,174.54h-392.48l-103.421-139.742V591.213l182.12-339.003L1368.654,260.279z"/>
	<path clip-path="url(#SVGID_2_)" fill="#F7A56D" d="M1108.022,804.611l-51.086-102.055l219.213-8.971l93.015,156.768h-186.36
		C1154.754,850.354,1121.279,829.885,1108.022,804.611z"/>
	<g clip-path="url(#SVGID_2_)">
		<defs>
			<rect id="SVGID_5_" x="1010.876" y="62.387" width="418" height="647"/>
		</defs>
		<clipPath id="SVGID_6_">
			<use xlink:href="#SVGID_5_"  overflow="visible"/>
		</clipPath>
		<rect x="1010.876" y="62.387" clip-path="url(#SVGID_6_)" fill="#FFFFFF" width="418" height="647"/>
		<path clip-path="url(#SVGID_6_)" fill="#3B71B6" d="M1025.985,728.716c0,0,169.568-96.192,219.952-51.765
			c0,0-17.34,29.32,42.254,51.765h245.42c0,0-277.922-4.094-236.747-66.941c0,0,33.048-28.171-14.082-31.422
			c-47.142-3.25-120.812-3.25-202.622,30.335c0,0-108.901,55.869-131.111,68.028H1025.985z"/>
		<path clip-path="url(#SVGID_6_)" fill="#0D181C" d="M1174.692,635.233v27.904c0,0,0.403,6.767,8.536,6.767h12.867
			c0,0,7.85,0.406,7.722-7.04v-28.445L1174.692,635.233z"/>
		<rect x="1174.692" y="635.233" clip-path="url(#SVGID_6_)" fill="#D1D3D4" width="29.125" height="16.249"/>
		<path clip-path="url(#SVGID_6_)" fill="#0D181C" d="M1240.927,636.045v29.666c0,0,1.896,5.831,6.771,5.821h15.033
			c0,0,7.446-1.628,7.312-6.368v-29.119H1240.927z"/>
		<rect x="1240.927" y="636.863" clip-path="url(#SVGID_6_)" fill="#D1D3D4" width="29.117" height="16.247"/>
		<rect x="1345.079" y="433.694" clip-path="url(#SVGID_6_)" fill="#B82B30" width="11.379" height="120.678"/>
		<path clip-path="url(#SVGID_6_)" fill="#E7422F" d="M1250.816,396.014c0,0,24.374,14.394,95.895,5.718v152.776
			c0,0-21.139-1.081-53.648-18.961c0,0-1.069,79.643-7.032,101.316h-136.521c0,0-10.846-86.148-3.802-124.068
			c0,0-5.411-41.181,8.13-70.423c0,0,20.577-40.151,29.25-46.358H1250.816z"/>
		<path clip-path="url(#SVGID_6_)" fill="#FFFFFF" d="M1221.555,478.805h18.694c0,0,8.539,0.801,8.396,9.34
			c-0.131,8.534,0,14.634,0,14.634s1.217,7.571-9.213,7.44h-16.519h-1.359V478.805z"/>
		<polygon clip-path="url(#SVGID_6_)" fill="#0D181C" points="1334.991,263.04 1341.02,263.04 1360.11,401.198 1356.054,401.198 		
			"/>
		<path clip-path="url(#SVGID_6_)" fill="#0D181C" d="M1232.38,82.136c0,0-17.836,35.677-62.954,47.222
			c0,0-1.053,55.618-50.368,111.232c0,0-98.642,126.968-20.986,279.11c0,0-64.17-107.25-90.554-182.102
			c-1.839-5.225-3.496-10.297-4.935-15.164V40.166h462.747c0,0-15.731,196.224-115.42,300.105c0,0,41.979-51.409,1.046-134.312
			l-9.443-16.789C1341.513,189.17,1267.01,158.74,1232.38,82.136z"/>
		<path clip-path="url(#SVGID_6_)" fill="#0D181C" d="M913.389,34.916c0,0,77.744,322.374,182.745,481.868
			c0.646,0.989,1.294,1.955,1.938,2.917c0,0-100.738-180.471-74.505-269.667l17.841-209.868L913.389,34.916z"/>
		
			<line clip-path="url(#SVGID_6_)" fill="none" stroke="#0D181C" stroke-miterlimit="10" x1="1279.603" y1="135.652" x2="1066.591" y2="342.367"/>
		
			<line clip-path="url(#SVGID_6_)" fill="none" stroke="#0D181C" stroke-miterlimit="10" x1="1265.964" y1="119.917" x2="1080.234" y2="299.351"/>
		
			<line clip-path="url(#SVGID_6_)" fill="none" stroke="#0D181C" stroke-miterlimit="10" x1="1254.418" y1="101.03" x2="1126.41" y2="221.703"/>
		
			<line clip-path="url(#SVGID_6_)" fill="none" stroke="#0D181C" stroke-miterlimit="10" x1="1242.875" y1="78.991" x2="1158.933" y2="161.367"/>
		<polygon clip-path="url(#SVGID_6_)" fill="#B82B30" points="1210.173,476.499 1222.915,476.499 1222.915,595.146 
			1210.173,592.162 		"/>
		<path clip-path="url(#SVGID_6_)" fill="none" stroke="#464797" stroke-miterlimit="10" d="M1174.692,635.497"/>
		<path clip-path="url(#SVGID_6_)" fill="#8CBF42" d="M1102.095,607.594c0,0,5.896-2.84,1.024-9.744c0,0-1.429-2.646,1.929-4.27
			c0,0,3.141-2.838,4.972,0c0,0,7.927,9.345,0,18.086l18.49,30.878c0,0,8.939-6.294,16.866,6.704c0,0,1.615,4.269,0,5.495
			c-1.625,1.212-4.271,3.041-7.315,0c0,0-3.652-7.526-9.551-1.633c0,0-0.702,4.467-4.41,7.312
			c-3.723,2.843-23.837,15.645-23.837,15.645s-2.431,3.455-11.774,1.017c0,0-7.522,2.846-3.459,9.551c0,0,1.867,4.26-1.202,5.892
			c-3.069,1.616-4.682,1.418-6.514-1.219c0,0-7.929-10.087,2.028-19.775l-18.085-28.593c0,0-9.541,6.113-17.87-6.076
			c0,0-2.846-3.053,0-5.69c0,0,2.845-3.661,7.52,2.234c0,0,4.263,4.874,9.749-0.403c0,0,1.014-8.536,6.291-11.788
			c0,0-8.319-8.331-1.616-13.216l12.594-7.714c0,0,4.874-4.055,10.564,7.308C1088.489,607.594,1096.611,604.35,1102.095,607.594z"/>
		<path clip-path="url(#SVGID_6_)" fill="#6C8BC6" d="M1445.533,224c-0.888,0.335-1.894,0.537-3.035,0.537
			c-0.088,0-0.164-0.011-0.246-0.011c-1.848,1.022-4.047,1.306-6.086,0.747c-2.014-0.564-3.333-1.769-4.526-3.339
			c0.262,0.349,0.541,0.7,0.81,1.055c-0.382-0.46-0.87-0.812-1.247-1.275c-1.354-1.644-1.962-2.51-2.637-4.554
			c-1.123-3.413,0.632-7.057,3.502-8.94c0.174-0.376,0.382-0.736,0.602-1.085c-38.746-39.108-105.876-29.011-105.876-29.011
			c-59.492,8.886-86.471,36.326-98.675,58.692c0.834,0.627,1.548,1.417,2.088,2.317c2.15,3.685,0.949,7.932-2.147,10.506
			c-0.028,0.02-0.055,0.042-0.088,0.063c-0.256,0.648-0.528,1.282-0.942,1.827c-0.283,0.392-0.6,0.768-0.894,1.152
			c-0.187,0.243-0.35,0.491-0.508,0.753c-1.245,2.101-3.348,3.42-5.631,3.832c-1.788,6.986-1.957,11.467-1.957,11.467
			c96.838,17.879,233.902-31.29,233.902-31.29C1450.095,232.578,1447.935,228.121,1445.533,224z"/>
		<polygon clip-path="url(#SVGID_6_)" fill="#6C8BC6" points="1334.991,180.561 1324.353,159.021 1321.105,183.398 		"/>
		<path clip-path="url(#SVGID_6_)" fill="#F9E925" d="M1228.546,236.036c0,0,112.572,6.591,203.743-29.316
			c0,0,12.197,15.236,13.739,18.07c0,0-62.703,37.953-226.272,33.426C1219.756,258.216,1226.972,238.761,1228.546,236.036z"/>
		<path clip-path="url(#SVGID_6_)" fill="#0D181C" d="M1254.065,344.101c0,1.004-0.818,1.831-1.832,1.831h-80.046
			c-1.006,0-1.823-0.826-1.823-1.831l0,0c0-1.006,0.817-1.832,1.823-1.832h80.046
			C1253.247,342.269,1254.065,343.095,1254.065,344.101L1254.065,344.101z"/>
		<rect x="1195.15" y="356.289" clip-path="url(#SVGID_6_)" fill="#0D181C" width="4.873" height="4.875"/>
		<rect x="1226.843" y="356.497" clip-path="url(#SVGID_6_)" fill="#0D181C" width="4.873" height="4.876"/>
		<path clip-path="url(#SVGID_6_)" fill="#0D181C" d="M1186.619,344.101v-16.455c0,0,2.435-19.101,25.59-21.129
			c0,0,21.336-2.637,29.461,21.129v16.455H1186.619z"/>
		<path clip-path="url(#SVGID_6_)" fill="#B82B30" d="M1187.965,376.276c0,0,28.717,40.086,55.26-3.252l15.713,30.338
			c0,0-33.59,35.211-81.805,0L1187.965,376.276z"/>
		
			<line clip-path="url(#SVGID_6_)" fill="none" stroke="#0D181C" stroke-miterlimit="10" x1="1319.498" y1="127.276" x2="1052.406" y2="386.466"/>
		<path clip-path="url(#SVGID_6_)" fill="#F9E925" d="M1230.163,237.573c0,0,112.575,6.58,203.743-29.326
			c0,0,12.199,15.238,13.736,18.078c0,0-62.697,37.943-226.27,33.423C1221.373,259.748,1228.589,240.288,1230.163,237.573z"/>
	</g>
	<g clip-path="url(#SVGID_2_)">
		<path fill="#F7A56D" d="M1324.692,472.15l3.004-2.195c24.239-17.713,58.271-12.432,75.992,11.832l36.778,46.312v195.654
			l-127.611-175.598C1295.13,523.898,1300.423,489.875,1324.692,472.15z"/>
		<g>
			<path fill="#F7A56D" d="M1208.737,422.086l168.454,40.337c8.666,2.074,13.84,10.739,11.539,19.356l-22.779,85.483
				c-2.292,8.612-11.087,13.549-19.636,11.039l-122.396-36.05c-30.576-8.472-49.403-55.075-35.688-108.531
				C1190.443,425.09,1200.064,420.004,1208.737,422.086z"/>
		</g>
		<g>
			<path fill="#FCC8A4" d="M1213.095,423.13l60.994,14.606l-11.202,40.988C1262.887,478.725,1203.695,478.725,1213.095,423.13z"/>
		</g>
	</g>
</g>
</svg>
