<?xml version="1.0" encoding="utf-8"?>
<!-- Generator: Adobe Illustrator 16.0.0, SVG Export Plug-In . SVG Version: 6.00 Build 0)  -->
<!DOCTYPE svg PUBLIC "-//W3C//DTD SVG 1.1//EN" "http://www.w3.org/Graphics/SVG/1.1/DTD/svg11.dtd">
<svg version="1.1" id="Layer_1" xmlns="http://www.w3.org/2000/svg" xmlns:xlink="http://www.w3.org/1999/xlink" x="0px" y="0px"
	 width="1012.5px" height="59px" viewBox="0 0 1012.5 59" enable-background="new 0 0 1012.5 59" xml:space="preserve">
<g>
	<path fill="#FFFFFF" d="M32.65,14.887H15.961v10.004h16.204v5.904H15.961v13.912H32.65v5.902H9.679V8.982H32.65V14.887z"/>
	<path fill="#FFFFFF" d="M43.578,50.611V6.152l30.358,31.762V8.983h6.282v44.162L49.861,21.465v29.146H43.578z"/>
	<path fill="#FFFFFF" d="M92.789,50.611V8.983h8.735c4.188,0,7.496,0.414,9.921,1.24c2.606,0.81,4.97,2.185,7.091,4.125
		c4.296,3.919,6.444,9.068,6.444,15.449c0,6.398-2.238,11.576-6.713,15.529c-2.247,1.977-4.602,3.354-7.064,4.125
		c-2.301,0.773-5.563,1.158-9.786,1.158h-8.628V50.611z M99.071,44.707h2.831c2.822,0,5.167-0.297,7.037-0.891
		c1.87-0.631,3.559-1.627,5.069-2.994c3.091-2.82,4.637-6.496,4.637-11.025c0-4.565-1.528-8.27-4.583-11.108
		c-2.75-2.535-6.804-3.802-12.16-3.802h-2.831V44.707L99.071,44.707z"/>
	<path fill="#FFFFFF" d="M141.792,8.983v41.628h-6.282V8.983H141.792z"/>
	<path fill="#FFFFFF" d="M154.383,50.611V6.152l30.358,31.762V8.983h6.282v44.162l-30.358-31.679v29.146H154.383z"/>
	<path fill="#FFFFFF" d="M224.946,28.934h17.202v1.375c0,3.127-0.369,5.896-1.106,8.305c-0.719,2.23-1.933,4.314-3.639,6.258
		c-3.865,4.35-8.781,6.521-14.749,6.521c-5.823,0-10.811-2.102-14.963-6.309c-4.152-4.225-6.228-9.293-6.228-15.206
		c0-6.04,2.112-11.162,6.336-15.369c4.224-4.224,9.364-6.335,15.422-6.335c3.253,0,6.29,0.662,9.112,1.985
		c2.696,1.324,5.348,3.476,7.954,6.454l-4.475,4.285c-3.416-4.547-7.577-6.82-12.483-6.82c-4.404,0-8.098,1.519-11.081,4.557
		c-2.984,2.982-4.475,6.723-4.475,11.215c0,4.64,1.662,8.458,4.987,11.458c3.11,2.787,6.48,4.182,10.111,4.182
		c3.091,0,5.868-1.041,8.331-3.121c2.462-2.098,3.837-4.607,4.125-7.529h-10.38L224.946,28.934L224.946,28.934z"/>
	<path fill="#FFFFFF" d="M284.095,14.887v35.724h-6.282V14.887h-9.572V8.983h25.398v5.904H284.095z"/>
	<path fill="#FFFFFF" d="M308.003,25.267h17.956V8.983h6.282v41.628h-6.282V31.172h-17.956v19.439h-6.282V8.983h6.282V25.267z"/>
	<path fill="#FFFFFF" d="M367.811,14.887h-16.688v10.004h16.203v5.904h-16.203v13.912h16.688v5.902H344.84V8.982h22.971V14.887z"/>
	<path fill="#FFFFFF" d="M404.904,33.707v16.902h-6.282V8.982h7.117c3.486,0,6.121,0.243,7.898,0.729
		c1.797,0.484,3.38,1.401,4.745,2.75c2.392,2.337,3.586,5.285,3.586,8.843c0,3.812-1.274,6.832-3.827,9.06
		c-2.554,2.229-5.995,3.344-10.326,3.344H404.904L404.904,33.707z M404.904,27.883h2.346c5.77,0,8.654-2.221,8.654-6.66
		c0-4.296-2.977-6.444-8.926-6.444h-2.074V27.883z"/>
	<path fill="#FFFFFF" d="M436.749,8.983v35.724h12.24v5.904h-18.522V8.983H436.749z"/>
	<path fill="#FFFFFF" d="M484.162,40.5h-17.821l-4.638,10.109h-6.769l20.6-44.243l19.87,44.243h-6.875L484.162,40.5z
		 M481.601,34.596l-6.175-14.155l-6.47,14.155H481.601z"/>
	<path fill="#FFFFFF" d="M507.347,32.627L493.758,8.982h7.228l9.517,16.636l9.544-16.636h7.226L513.63,32.627v17.982h-6.282
		L507.347,32.627L507.347,32.627z"/>
	<path fill="#FFFFFF" d="M579.086,40.5h-17.821l-4.637,10.109h-6.768l20.599-44.243l19.869,44.243h-6.874L579.086,40.5z
		 M576.523,34.596l-6.175-14.155l-6.47,14.155H576.523z"/>
	<path fill="#FFFFFF" d="M598.199,50.611V6.152l30.357,31.762V8.983h6.284v44.162l-30.357-31.679v29.146H598.199z"/>
	<path fill="#FFFFFF" d="M647.409,50.611V8.983h8.735c4.189,0,7.494,0.414,9.924,1.24c2.604,0.81,4.969,2.185,7.09,4.125
		c4.295,3.919,6.441,9.068,6.441,15.449c0,6.398-2.235,11.576-6.711,15.529c-2.247,1.977-4.604,3.354-7.065,4.125
		c-2.3,0.773-5.562,1.158-9.787,1.158h-8.627V50.611z M653.693,44.707h2.83c2.819,0,5.167-0.297,7.035-0.891
		c1.869-0.631,3.561-1.627,5.067-2.994c3.093-2.82,4.641-6.496,4.641-11.025c0-4.565-1.527-8.27-4.584-11.108
		c-2.751-2.535-6.804-3.802-12.159-3.802h-2.83V44.707L653.693,44.707z"/>
	<path fill="#FFFFFF" d="M716.347,33.707v16.902h-6.284V8.982h7.119c3.486,0,6.118,0.243,7.897,0.729
		c1.8,0.484,3.381,1.401,4.746,2.75c2.39,2.337,3.586,5.285,3.586,8.843c0,3.812-1.275,6.832-3.827,9.06
		c-2.553,2.229-5.996,3.344-10.328,3.344H716.347L716.347,33.707z M716.347,27.883h2.344c5.771,0,8.656-2.221,8.656-6.66
		c0-4.296-2.977-6.444-8.926-6.444h-2.074V27.883z"/>
	<path fill="#FFFFFF" d="M763.227,40.5h-17.819l-4.638,10.109h-6.768L754.6,6.367l19.869,44.243h-6.874L763.227,40.5z
		 M760.665,34.596l-6.175-14.155l-6.471,14.155H760.665z"/>
	<path fill="#FFFFFF" d="M786.41,32.627L772.821,8.982h7.226l9.52,16.636l9.545-16.636h7.226l-13.643,23.645v17.982h-6.283
		L786.41,32.627L786.41,32.627z"/>
	<path fill="#FFFFFF" d="M809.083,50.611l8.763-44.756l14.288,32.354l14.802-32.354l7.875,44.756h-6.446l-4.018-25.127
		l-12.318,27.042l-11.972-27.069l-4.478,25.155H809.083z"/>
	<path fill="#FFFFFF" d="M888.304,14.887h-16.689v10.004h16.203v5.904h-16.203v13.912h16.689v5.902h-22.971V8.982h22.971V14.887z"/>
	<path fill="#FFFFFF" d="M899.231,50.611V6.152l30.357,31.762V8.983h6.28v44.162l-30.358-31.679v29.146H899.231z"/>
	<path fill="#FFFFFF" d="M959.783,14.887v35.724h-6.281V14.887h-9.571V8.983h25.397v5.904H959.783z"/>
	<path fill="#FFFFFF" d="M1000.804,15.157l-5.098,3.02c-0.951-1.654-1.859-2.732-2.721-3.235c-0.898-0.574-2.059-0.862-3.479-0.862
		c-1.744,0-3.189,0.494-4.339,1.483c-1.15,0.972-1.728,2.194-1.728,3.669c0,2.034,1.512,3.669,4.53,4.91l4.152,1.701
		c3.378,1.367,5.851,3.035,7.414,5.003c1.562,1.971,2.344,4.385,2.344,7.246c0,3.83-1.276,6.996-3.828,9.496
		c-2.567,2.52-5.76,3.779-9.571,3.779c-3.611,0-6.596-1.076-8.947-3.225c-2.32-2.146-3.77-5.162-4.342-9.045l6.362-1.402
		c0.285,2.445,0.789,4.137,1.509,5.068c1.296,1.799,3.182,2.695,5.664,2.695c1.959,0,3.582-0.654,4.879-1.965
		c1.291-1.312,1.94-2.975,1.94-4.984c0-0.809-0.112-1.549-0.338-2.223c-0.225-0.676-0.576-1.293-1.051-1.859
		c-0.478-0.566-1.095-1.096-1.85-1.588c-0.753-0.494-1.653-0.967-2.693-1.416l-4.019-1.67c-5.697-2.406-8.547-5.928-8.547-10.562
		c0-3.125,1.196-5.738,3.586-7.84c2.389-2.12,5.365-3.179,8.926-3.179C994.361,8.174,998.105,10.502,1000.804,15.157z"/>
</g>
</svg>
