<?xml version="1.0" encoding="utf-8"?>
<!-- Generator: Adobe Illustrator 16.0.0, SVG Export Plug-In . SVG Version: 6.00 Build 0)  -->
<!DOCTYPE svg PUBLIC "-//W3C//DTD SVG 1.1//EN" "http://www.w3.org/Graphics/SVG/1.1/DTD/svg11.dtd">
<svg version="1.1" id="Layer_1" xmlns="http://www.w3.org/2000/svg" xmlns:xlink="http://www.w3.org/1999/xlink" x="0px" y="0px"
	 width="612px" height="792px" viewBox="0 0 612 792" enable-background="new 0 0 612 792" xml:space="preserve">
<path fill="#333333" d="M26.771,395.989c0-153.523,124.463-277.961,277.982-277.961c153.52,0,277.985,124.438,277.985,277.961
	c0,153.521-124.466,277.985-277.985,277.985C151.234,673.974,26.771,549.51,26.771,395.989z"/>
<g>
	<linearGradient id="SVGID_1_" gradientUnits="userSpaceOnUse" x1="185.6694" y1="360.7124" x2="229.1289" y2="360.7124">
		<stop  offset="0" style="stop-color:#C27162"/>
		<stop  offset="1" style="stop-color:#CB8777"/>
	</linearGradient>
	<path fill="url(#SVGID_1_)" d="M229.128,360.945c-0.123,11.971-9.93,21.576-21.928,21.453c-12.004-0.093-21.633-9.93-21.529-21.868
		c0.131-12,9.933-21.61,21.954-21.503C219.615,339.136,229.244,348.948,229.128,360.945z"/>
	<linearGradient id="SVGID_2_" gradientUnits="userSpaceOnUse" x1="373.4854" y1="364.0879" x2="416.9268" y2="364.0879">
		<stop  offset="0" style="stop-color:#C27162"/>
		<stop  offset="1" style="stop-color:#CB8777"/>
	</linearGradient>
	<path fill="url(#SVGID_2_)" d="M416.926,364.297c-0.097,11.99-9.917,21.613-21.905,21.498c-12.02-0.126-21.649-9.932-21.534-21.922
		c0.126-11.972,9.929-21.62,21.963-21.491C407.436,342.518,417.043,352.295,416.926,364.297z"/>
	<path fill="#0C0E15" d="M397.319,319.237c-0.508,52.306-41.896,71.793-94.236,71.311c-52.342-0.536-95.863-20.819-95.348-73.139
		c0.489-52.282,43.353-94.28,95.697-93.773C355.781,224.133,397.812,266.958,397.319,319.237z"/>
	<path fill="#E29985" d="M393.979,503.914c-0.246,27.865-23.055,50.186-50.945,49.938l-88.274-0.835
		c-27.858-0.289-50.239-23.051-49.96-50.903l23.744-195.726c0.276-27.825,23.074-50.182,50.932-49.912l47.311,0.464
		c27.854,0.248,50.252,23.071,49.974,50.881L393.979,503.914z"/>
	<path fill="#EDA68E" d="M393.747,502.25l-17.221-196.109c0.268-27.857-22.125-50.627-49.973-50.9l-47.324-0.441
		c-27.852-0.277-50.65,22.048-50.904,49.907c0,0-6.127,34.458-2.907,52.65c35.979-49.045,65.904-2.744,65.904-2.744l-2.845,46.672
		l20.456,1.355l-6.197,52.097l-13.423,96.914l53.486,0.528C370.691,552.438,393.486,530.062,393.747,502.25z"/>
	<path fill="#BE1E2D" d="M266.259,447.926c0,0,36.915,18.97,76.29,3.582C344.273,463.158,291.866,500.568,266.259,447.926z"/>
	<path fill="#191D21" d="M233.461,347.421c0,0,25.759-40.874,53.846,2.936C271.605,335.91,251.822,334.15,233.461,347.421z"/>
	<path fill="#191D21" d="M313.445,347.421c0,0,25.737-40.892,53.836,2.859C351.575,335.9,331.81,334.128,313.445,347.421z"/>
	<g>
		<path fill="#0C0E15" d="M304.552,410.547c-46.212-18.853-51.75,65.55-78.117,36.676
			C243.206,484.504,324.572,467.22,304.552,410.547z"/>
		<path fill="#0C0E15" d="M305.512,410.614c48.294-12.669,42.759,71.738,72.646,46.565
			C356.676,491.925,278.265,464.201,305.512,410.614z"/>
	</g>
</g>
</svg>
