<?xml version="1.0" encoding="utf-8"?>
<!-- Generator: Adobe Illustrator 16.0.0, SVG Export Plug-In . SVG Version: 6.00 Build 0)  -->
<!DOCTYPE svg PUBLIC "-//W3C//DTD SVG 1.1//EN" "http://www.w3.org/Graphics/SVG/1.1/DTD/svg11.dtd">
<svg version="1.1" id="Layer_1" xmlns="http://www.w3.org/2000/svg" xmlns:xlink="http://www.w3.org/1999/xlink" x="0px" y="0px"
	 width="612px" height="792px" viewBox="0 0 612 792" enable-background="new 0 0 612 792" xml:space="preserve">
<path fill="#333333" d="M584.092,395.853c0,153.413-124.364,277.775-277.774,277.775c-153.416,0-277.778-124.362-277.778-277.775
	c0-153.422,124.363-277.788,277.778-277.788C459.728,118.064,584.092,242.43,584.092,395.853z"/>
<g>
	<path fill="#FEA672" d="M375.964,398.356c-0.431,13.282,9.965,24.383,23.26,24.813c13.297,0.424,24.392-9.988,24.819-23.262
		c0.42-13.277-9.991-24.377-23.291-24.809C387.478,374.685,376.39,385.1,375.964,398.356z"/>
	<g>
		<path fill="#FECA8C" d="M188.765,392.159c1.626,13.182,13.623,22.545,26.811,20.902c13.209-1.621,22.56-13.626,20.934-26.801
			c-1.636-13.185-13.618-22.529-26.846-20.91C196.494,366.977,187.128,378.979,188.765,392.159z"/>
		<path fill="#181512" d="M199.044,304.839c-1.88,58.572,44.126,107.564,102.72,109.443
			c58.595,1.873,107.646-44.074,109.533-102.642c1.873-58.53-44.139-107.52-102.743-109.396
			C249.967,200.361,200.917,246.32,199.044,304.839z"/>
		<path fill="#FECA8C" d="M219.15,473.166c-1.478,46.195,34.77,84.834,80.959,86.304l0,0c46.197,1.483,84.852-34.758,86.321-80.953
			l4.182-130.386c1.47-46.19-34.78-84.842-80.954-86.312l0,0c-46.22-1.493-84.852,34.761-86.33,80.958L219.15,473.166z"/>
		<path fill="#FEA672" d="M304.587,515.572l2.947-78.978l24.634,0.785c0,0-8.292-118.623-11.005-134.031
			c-4.824-27.453-4.874-23.161-5.537-41.108c43.882,3.901,77.632,41.353,76.208,85.927l-4.183,130.384
			c-1.29,40.305-35.962,80.508-83.67,81.415C327.899,538.319,304.587,515.572,304.587,515.572z"/>
		<path fill="#FFFFFF" d="M348.965,454.779c0,0-44.392,29.49-86.469-6.532C258.845,469.989,312.354,550.136,348.965,454.779z"/>
		<path fill="#181512" d="M242.917,266.816c-1.001,30.917,26.642,56.888,61.717,58.004c35.077,1.124,64.321-23.024,65.309-53.934
			c0.997-30.909-26.638-56.885-61.728-58.007C273.138,211.757,243.908,235.907,242.917,266.816z"/>
		<path fill="#181512" d="M375.197,388.412c0,0-21.031-36.681-47.167,0.578C342.275,376.97,359.628,376.14,375.197,388.412z"/>
		<path fill="#181512" d="M289.584,384.988c0,0-21.022-36.687-47.158,0.55C256.669,373.529,274.02,372.721,289.584,384.988z"/>
	</g>
</g>
</svg>
