<?xml version="1.0" encoding="utf-8"?>
<!-- Generator: Adobe Illustrator 16.0.0, SVG Export Plug-In . SVG Version: 6.00 Build 0)  -->
<!DOCTYPE svg PUBLIC "-//W3C//DTD SVG 1.1//EN" "http://www.w3.org/Graphics/SVG/1.1/DTD/svg11.dtd">
<svg version="1.1" id="Layer_1" xmlns="http://www.w3.org/2000/svg" xmlns:xlink="http://www.w3.org/1999/xlink" x="0px" y="0px"
	 width="1224px" height="792px" viewBox="0 0 1224 792" enable-background="new 0 0 1224 792" xml:space="preserve">
<g>
	<path fill="#5AB157" d="M371.181,120.089h-11.255l-35.712-49.048h-5.559v49.048h-9.241V17.215h18.69
		c11.023,0,19.28,2.318,24.769,6.956s8.233,11.665,8.233,21.081c0,8.011-2.352,14.312-7.052,18.902
		c-4.702,4.592-11.175,6.887-19.419,6.887L371.181,120.089z M318.655,25.365v38.016h9.31c8.616,0,14.625-1.393,18.03-4.181
		c3.405-2.786,5.107-7.529,5.107-14.229c0-7.073-1.761-12.109-5.281-15.107c-3.521-2.998-9.473-4.498-17.856-4.498H318.655z"/>
	<path fill="#5AB157" d="M439.325,17.215h9.102v67.177c0,10.166,2.292,17.72,6.878,22.662c4.585,4.943,11.603,7.413,21.052,7.413
		c9.311,0,16.258-2.47,20.844-7.413c4.585-4.942,6.878-12.496,6.878-22.662V17.215h9.241V81.37c0,13.913-3.057,24.303-9.171,31.165
		c-6.114,6.863-15.378,10.294-27.792,10.294c-12.46,0-21.747-3.431-27.861-10.294c-6.114-6.862-9.171-17.252-9.171-31.165V17.215z"
		/>
	<path fill="#5AB157" d="M593.416,120.089V17.215h9.241v94.09h34.878v8.784H593.416z"/>
	<path fill="#5AB157" d="M707.417,120.089V17.215h50.372v8.783h-41.132v32.184h41.132v8.783h-41.132v44.34h41.132v8.784H707.417z"/>
	<path fill="#5AB157" d="M827.878,102.803l7.921-4.287c1.481,5.06,4.041,8.983,7.678,11.771c3.636,2.788,8,4.181,13.097,4.181
		c6.438,0,11.464-1.92,15.076-5.762c3.613-3.841,5.42-9.158,5.42-15.951c0-4.965-1.216-9.088-3.647-12.367
		c-2.433-3.278-7.655-7.073-15.668-11.384c-10.237-5.481-17.046-10.306-20.427-14.476c-3.382-4.169-5.072-9.181-5.072-15.037
		c0-7.309,2.443-13.257,7.33-17.849c4.887-4.591,11.221-6.887,19.003-6.887c5.095,0,9.529,1.089,13.305,3.268
		s6.844,5.446,9.206,9.803l-7.156,4.356c-1.482-2.951-3.578-5.2-6.288-6.746c-2.709-1.546-5.917-2.318-9.622-2.318
		c-5.003,0-8.987,1.487-11.95,4.462c-2.965,2.976-4.447,6.992-4.447,12.051c0,7.215,5.882,13.938,17.647,20.168
		c2.13,1.124,3.752,1.991,4.864,2.6c8.66,4.825,14.451,9.381,17.369,13.668c2.918,4.286,4.377,9.85,4.377,16.688
		c0,9.229-2.664,16.549-7.989,21.959c-5.327,5.411-12.576,8.116-21.747,8.116c-6.67,0-12.38-1.676-17.127-5.024
		C834.281,114.456,830.563,109.455,827.878,102.803z"/>
	<path fill="#5AB157" d="M586.544,234.914c0,7.262-1.368,14.159-4.103,20.694c-2.734,6.535-6.674,12.356-11.818,17.462
		c-5.238,5.153-11.148,9.077-17.729,11.771c-6.582,2.692-13.534,4.04-20.856,4.04c-7.324,0-14.265-1.348-20.823-4.04
		c-6.558-2.693-12.432-6.617-17.624-11.771c-5.191-5.2-9.142-11.043-11.854-17.532c-2.712-6.487-4.067-13.362-4.067-20.624
		c0-7.354,1.355-14.3,4.067-20.835c2.711-6.535,6.662-12.402,11.854-17.603c5.098-5.105,10.915-8.97,17.45-11.594
		c6.535-2.623,13.534-3.936,20.997-3.936c7.508,0,14.542,1.324,21.1,3.971s12.387,6.499,17.486,11.559
		c5.19,5.2,9.141,11.067,11.853,17.603C585.188,220.614,586.544,227.56,586.544,234.914z M532.038,280.519
		c6.025,0,11.727-1.124,17.105-3.373c5.377-2.248,10.221-5.526,14.533-9.837c4.218-4.357,7.451-9.312,9.699-14.862
		c2.249-5.552,3.373-11.395,3.373-17.532c0-6.184-1.113-12.027-3.338-17.532c-2.225-5.504-5.469-10.458-9.733-14.862
		c-4.219-4.309-9.029-7.589-14.429-9.837c-5.401-2.249-11.137-3.373-17.209-3.373c-6.027,0-11.706,1.124-17.037,3.373
		c-5.33,2.248-10.151,5.528-14.462,9.837c-4.264,4.451-7.509,9.405-9.734,14.862c-2.226,5.458-3.337,11.303-3.337,17.532
		c0,6.184,1.112,12.028,3.337,17.532c2.226,5.505,5.47,10.459,9.734,14.862c4.264,4.356,9.039,7.648,14.324,9.872
		C520.147,279.406,525.872,280.519,532.038,280.519z"/>
	<path fill="#5AB157" d="M662.193,286.141V183.267h50.372v8.783h-41.132v32.184h39.603v8.783h-39.603v53.124H662.193z"/>
	<path fill="#5AB157" d="M411.923,375.177c-4.123-6.465-9.195-11.359-15.216-14.686c-6.022-3.326-12.808-4.989-20.357-4.989
		c-12.599,0-22.858,4.311-30.779,12.93s-11.881,19.792-11.881,33.519c0,6.138,1.053,11.923,3.161,17.356
		c2.107,5.435,5.176,10.259,9.206,14.476c4.075,4.17,8.638,7.297,13.688,9.381c5.048,2.085,10.583,3.127,16.605,3.127
		c11.395,0,20.67-3.396,27.827-10.189c7.156-6.792,10.827-15.67,11.012-26.632h-35.087v-8.081h45.231v1.124
		c0,16.397-4.424,29.232-13.271,38.508c-8.848,9.275-21.029,13.913-36.546,13.913c-15.424,0-27.908-4.965-37.449-14.896
		c-9.542-9.932-14.312-22.954-14.312-39.07c0-7.401,1.204-14.394,3.613-20.976c2.408-6.581,5.882-12.308,10.422-17.181
		c4.909-5.293,10.457-9.251,16.64-11.875c6.184-2.623,13.073-3.936,20.67-3.936c10.329,0,19.176,1.887,26.541,5.656
		c7.365,3.771,13.038,9.312,17.022,16.619L411.923,375.177z"/>
	<path fill="#5AB157" d="M486.112,452.192l44.675-106.95l42.799,106.95h-10.074l-12.993-34.854h-41.548l-13.479,34.854H486.112z
		 M512.097,409.328h35.434l-17.37-44.762L512.097,409.328z"/>
	<path fill="#5AB157" d="M686.613,456.197l-35.712-82.566l-7.712,78.562h-9.519l13.826-107.231l38.978,91.562l40.437-91.562
		l13.062,107.231h-9.519l-7.573-78.562L686.613,456.197z"/>
	<path fill="#5AB157" d="M814.372,452.192V349.318h50.372v8.783h-41.132v32.184h41.132v8.783h-41.132v44.341h41.132v8.783H814.372z"
		/>
	<path fill="#160D0F" d="M510.777,561.748h44.328v3.583c0,8.151-0.95,15.366-2.849,21.644c-1.853,5.809-4.979,11.243-9.38,16.302
		c-9.959,11.338-22.627,17.006-38.005,17.006c-15.007,0-27.861-5.481-38.561-16.443c-10.7-11.008-16.049-24.219-16.049-39.632
		c0-15.74,5.442-29.092,16.327-40.054c10.884-11.008,24.132-16.513,39.742-16.513c8.383,0,16.211,1.726,23.483,5.176
		c6.948,3.452,13.78,9.058,20.497,16.818l-11.534,11.173c-8.801-11.852-19.523-17.778-32.168-17.778
		c-11.349,0-20.868,3.959-28.556,11.876c-7.689,7.776-11.534,17.521-11.534,29.231c0,12.086,4.284,22.042,12.854,29.864
		c8.013,7.262,16.698,10.892,26.055,10.892c7.966,0,15.123-2.709,21.469-8.13c6.345-5.467,9.889-12.009,10.63-19.626h-26.75V561.748
		z"/>
	<path fill="#160D0F" d="M628.252,563.505c0-15.271,5.534-28.39,16.605-39.352c11.023-10.962,24.271-16.442,39.741-16.442
		c15.286,0,28.394,5.528,39.325,16.583c10.978,11.057,16.467,24.338,16.467,39.843c0,15.6-5.513,28.835-16.536,39.702
		c-11.071,10.916-24.434,16.373-40.089,16.373c-13.851,0-26.287-4.849-37.311-14.546
		C634.319,594.938,628.252,580.885,628.252,563.505z M644.579,563.68c0,11.983,3.983,21.836,11.95,29.559
		c7.921,7.723,17.068,11.584,27.444,11.584c11.256,0,20.75-3.932,28.486-11.795c7.735-7.956,11.603-17.646,11.603-29.066
		c0-11.561-3.821-21.249-11.464-29.066c-7.597-7.863-16.999-11.795-28.208-11.795c-11.163,0-20.59,3.932-28.278,11.795
		C648.424,542.665,644.579,552.26,644.579,563.68z"/>
	<path fill="#160D0F" d="M403.829,691.891l-13.131,7.87c-2.456-4.31-4.794-7.12-7.017-8.432c-2.317-1.499-5.305-2.249-8.963-2.249
		c-4.493,0-8.223,1.29-11.186,3.868c-2.965,2.532-4.447,5.719-4.447,9.563c0,5.297,3.891,9.562,11.672,12.798l10.7,4.43
		c8.708,3.564,15.077,7.912,19.107,13.045c4.03,5.134,6.044,11.428,6.044,18.881c0,9.985-3.29,18.236-9.866,24.753
		c-6.625,6.563-14.846,9.845-24.665,9.845c-9.31,0-17-2.8-23.067-8.4c-5.975-5.596-9.705-13.453-11.186-23.572l16.397-3.654
		c0.74,6.372,2.038,10.775,3.891,13.211c3.335,4.685,8.198,7.026,14.59,7.026c5.048,0,9.241-1.708,12.576-5.125
		s5.002-7.747,5.002-12.991c0-2.105-0.29-4.037-0.868-5.792c-0.58-1.756-1.483-3.371-2.71-4.846
		c-1.228-1.475-2.814-2.855-4.759-4.143s-4.262-2.517-6.948-3.687l-10.353-4.354c-14.684-6.273-22.024-15.448-22.024-27.526
		c0-8.145,3.08-14.956,9.241-20.433c6.16-5.524,13.826-8.286,22.997-8.286C387.224,673.691,396.881,679.759,403.829,691.891z"/>
	<path fill="#160D0F" d="M513.87,691.188v93.106h-16.188v-93.106h-24.665v-15.39h65.449v15.39H513.87z"/>
	<path fill="#160D0F" d="M605.707,729.556c0-15.271,5.534-28.39,16.606-39.352c11.023-10.962,24.27-16.442,39.74-16.442
		c15.287,0,28.395,5.528,39.326,16.583c10.977,11.057,16.467,24.338,16.467,39.843c0,15.6-5.514,28.835-16.537,39.702
		c-11.07,10.916-24.434,16.373-40.088,16.373c-13.852,0-26.287-4.849-37.311-14.546
		C611.774,760.989,605.707,746.936,605.707,729.556z M622.033,729.73c0,11.983,3.984,21.836,11.951,29.559
		c7.92,7.723,17.068,11.584,27.443,11.584c11.256,0,20.75-3.932,28.486-11.795c7.736-7.956,11.604-17.646,11.604-29.066
		c0-11.561-3.822-21.249-11.465-29.066c-7.596-7.863-16.998-11.795-28.207-11.795c-11.164,0-20.59,3.932-28.279,11.795
		C625.879,708.716,622.033,718.311,622.033,729.73z"/>
	<path fill="#160D0F" d="M812.53,740.236v44.059h-16.188V675.799h18.343c8.985,0,15.771,0.633,20.356,1.897
		c4.632,1.265,8.708,3.654,12.229,7.168c6.16,6.09,9.241,13.772,9.241,23.048c0,9.933-3.29,17.803-9.866,23.61
		c-6.578,5.81-15.448,8.714-26.61,8.714H812.53z M812.53,725.058h6.045c14.868,0,22.303-5.785,22.303-17.356
		c0-11.195-7.667-16.794-22.998-16.794h-5.35V725.058z"/>
</g>
</svg>
